<?xml version="1.0" encoding="UTF-8"?>
<svg id="Layer_1" data-name="Layer 1" xmlns="http://www.w3.org/2000/svg" viewBox="0 0 162 165">
  <defs>
    <style>
      .cls-1 {
        fill: #181818;
      }

      .cls-2 {
        fill: #111;
      }

      .cls-3 {
        fill: #252525;
      }

      .cls-4 {
        fill: #010101;
      }

      .cls-5 {
        fill: #8b8b8b;
      }

      .cls-6 {
        fill: #9c9c9c;
      }

      .cls-7 {
        fill: #141414;
      }

      .cls-8 {
        fill: #c3c3c3;
      }

      .cls-9 {
        fill: #2a2a2a;
      }

      .cls-10 {
        fill: #9a9a9a;
      }

      .cls-11 {
        fill: #fcfcfc;
      }

      .cls-12 {
        fill: #727272;
      }

      .cls-13 {
        fill: #b8b8b8;
      }

      .cls-14 {
        fill: #d7d7d7;
      }

      .cls-15 {
        fill: #b1b1b1;
      }

      .cls-16 {
        fill: #a7a7a7;
      }

      .cls-17 {
        fill: #848484;
      }

      .cls-18 {
        fill: #f6f6f6;
      }

      .cls-19 {
        fill: #080808;
      }

      .cls-20 {
        fill: #c2c2c2;
      }

      .cls-21 {
        fill: #272727;
      }

      .cls-22 {
        fill: #9f9f9f;
      }

      .cls-23 {
        fill: #4d4d4d;
      }

      .cls-24 {
        fill: #0c0c0c;
      }

      .cls-25 {
        fill: #bababa;
      }

      .cls-26 {
        fill: #020202;
      }

      .cls-27 {
        fill: #a4a4a4;
      }

      .cls-28 {
        fill: #c9c9c9;
      }

      .cls-29 {
        fill: #f0f0f0;
      }

      .cls-30 {
        fill: #cdcdcd;
      }

      .cls-31 {
        fill: #131313;
      }

      .cls-32 {
        fill: #a6a6a6;
      }

      .cls-33 {
        fill: #6e6e6e;
      }

      .cls-34 {
        fill: #cecece;
      }

      .cls-35 {
        fill: #e9e9e9;
      }

      .cls-36 {
        fill: #9b9b9b;
      }

      .cls-37 {
        fill: #e1e1e1;
      }

      .cls-38 {
        fill: #050505;
      }

      .cls-39 {
        fill: #060606;
      }

      .cls-40 {
        fill: #303030;
      }

      .cls-41 {
        fill: #e2e2e2;
      }

      .cls-42 {
        fill: #e5e5e5;
      }

      .cls-43 {
        fill: #b2b2b2;
      }

      .cls-44 {
        fill: #d5d5d5;
      }

      .cls-45 {
        fill: #fbfbfb;
      }

      .cls-46 {
        fill: #171717;
      }

      .cls-47 {
        fill: #e0e0e0;
      }

      .cls-48 {
        fill: #8a8a8a;
      }

      .cls-49 {
        fill: #f2f2f2;
      }

      .cls-50 {
        fill: #bbb;
      }

      .cls-51 {
        fill: #a0a0a0;
      }

      .cls-52 {
        fill: #e3e3e3;
      }

      .cls-53 {
        fill: #929292;
      }

      .cls-54 {
        fill: #1f1f1f;
      }

      .cls-55 {
        fill: #282828;
      }

      .cls-56 {
        fill: #b0b0b0;
      }

      .cls-57 {
        fill: #d8d8d8;
      }

      .cls-58 {
        fill: #f1f1f1;
      }

      .cls-59 {
        fill: #212121;
      }

      .cls-60 {
        fill: #dbdbdb;
      }

      .cls-61 {
        fill: #444;
      }

      .cls-62 {
        fill: #d3d3d3;
      }

      .cls-63 {
        fill: #222;
      }

      .cls-64 {
        fill: #cbcbcb;
      }

      .cls-65 {
        fill: #030303;
      }

      .cls-66 {
        fill: #0d0d0d;
      }

      .cls-67 {
        fill: #ddd;
      }

      .cls-68 {
        fill: #333;
      }

      .cls-69 {
        fill: #717171;
      }

      .cls-70 {
        fill: #474747;
      }

      .cls-71 {
        fill: #efefef;
      }

      .cls-72 {
        fill: #dfdfdf;
      }

      .cls-73 {
        fill: #eee;
      }

      .cls-74 {
        fill: #191919;
      }

      .cls-75 {
        fill: #515151;
      }

      .cls-76 {
        fill: #9e9e9e;
      }

      .cls-77 {
        fill: #d0d0d0;
      }

      .cls-78 {
        fill: #919191;
      }

      .cls-79 {
        fill: #d6d6d6;
      }

      .cls-80 {
        fill: #858585;
      }

      .cls-81 {
        fill: #ebebeb;
      }

      .cls-82 {
        fill: #c7c7c7;
      }

      .cls-83 {
        fill: #dedede;
      }

      .cls-84 {
        fill: #cfcfcf;
      }

      .cls-85 {
        fill: #f4f4f4;
      }

      .cls-86 {
        fill: #b3b3b3;
      }

      .cls-87 {
        fill: #545454;
      }

      .cls-88 {
        fill: #a5a5a5;
      }

      .cls-89 {
        fill: #c1c1c1;
      }

      .cls-90 {
        fill: #f5f5f5;
      }

      .cls-91 {
        fill: #a9a9a9;
      }

      .cls-92 {
        fill: #b9b9b9;
      }

      .cls-93 {
        fill: #393939;
      }

      .cls-94 {
        fill: #292929;
      }

      .cls-95 {
        fill: #ababab;
      }

      .cls-96 {
        fill: #7f7f7f;
      }

      .cls-97 {
        fill: #565656;
      }

      .cls-98 {
        fill: #c6c6c6;
      }

      .cls-99 {
        fill: #dcdcdc;
      }

      .cls-100 {
        fill: #0a0a0a;
      }

      .cls-101 {
        fill: #b6b6b6;
      }

      .cls-102 {
        fill: #4b4b4b;
      }

      .cls-103 {
        fill: #dadada;
      }

      .cls-104 {
        fill: #e4e4e4;
      }

      .cls-105 {
        fill: #ececec;
      }

      .cls-106 {
        fill: #151515;
      }

      .cls-107 {
        fill: #bcbcbc;
      }

      .cls-108 {
        fill: #040404;
      }

      .cls-109 {
        fill: #e7e7e7;
      }

      .cls-110 {
        fill: #ededed;
      }

      .cls-111 {
        fill: #d4d4d4;
      }

      .cls-112 {
        fill: #b7b7b7;
      }

      .cls-113 {
        fill: #a1a1a1;
      }

      .cls-114 {
        fill: #fafafa;
      }

      .cls-115 {
        fill: #d2d2d2;
      }

      .cls-116 {
        fill: #070707;
      }

      .cls-117 {
        fill: #eaeaea;
      }

      .cls-118 {
        fill: #f8f8f8;
      }

      .cls-119 {
        fill: #d1d1d1;
      }

      .cls-120 {
        fill: #9d9d9d;
      }

      .cls-121 {
        fill: #101010;
      }

      .cls-122 {
        fill: #d9d9d9;
      }

      .cls-123 {
        fill: #f7f7f7;
      }

      .cls-124 {
        fill: #707070;
      }

      .cls-125 {
        fill: #161616;
      }

      .cls-126 {
        fill: #b5b5b5;
      }

      .cls-127 {
        fill: #f3f3f3;
      }

      .cls-128 {
        fill: #e8e8e8;
      }

      .cls-129 {
        fill: #e6e6e6;
      }
    </style>
  </defs>

  <g>
    <path class="cls-108" d="M1.81,34.08h154.03v96.24H1.81V34.08Z"/>
-.1.05-.21.1-.32.15-2.58,1.25-4.89,2.95-7.03,4.85-.11.09-.22.19-.34.28-1.62,1.38-3.04,2.9-4.31,4.6-.19.26-.39.51-.58.76-1.99,2.65-3.51,5.62-4.62,8.73-.07.2-.15.4-.22.59-.41,1.14-.71,2.3-.98,3.48-.03.14-.06.27-.1.41-.48,2.15-.63,4.22-.63,6.42,0,.44,0,.89,0,1.33,0,2.71.35,5.29,1.02,7.92.05.19.09.37.14.56,2.07,7.85,6.87,13.56,12.49,19.16.38.38.76.76,1.13,1.14.37.37.74.74,1.1,1.1.13.13.27.27.41.41.68.67,1.36,1.33,2.09,1.94.28.24.53.5.79.77.71.72,1.5,1.34,2.3,1.97.17.14.34.28.51.42,2.44,1.97,5.06,3.6,7.9,4.95.1.05.21.1.31.15,6.86,3.19,15.5,3.29,22.7,1.21.16-.05.32-.09.49-.14,4.89-1.45,9.3-3.81,13.11-7.21.31-.26.62-.52.94-.78.47.21.78.43,1.13.81.09.1.18.2.28.3.09.1.19.21.29.32q.15.16.3.32c.56.61,1.11,1.22,1.64,1.84.37.42.75.84,1.14,1.25.49.53.97,1.06,1.45,1.6.08.09.16.18.24.27q.27.31.5.64.49.66,1.2,1.04c.4.04.78.04,1.19.03.15,0,.3,0,.45,0,.49,0,.98-.01,1.47-.02.34,0,.68,0,1.03,0,.9,0,1.8-.02,2.69-.03.92-.01,1.83-.02,2.75-.02,1.8-.01,3.59-.03,5.39-.06.03-.1.07-.19.1-.29.32-.93.65-1.87.97-2.8.09-.26.18-.52.27-.78q1.25-3.61,1.88-5.36c.04-.11.08-.23.12-.35.19-.52.37-1.04.56-1.55.06-.18.13-.36.19-.54.06-.15.11-.3.17-.46q.14-.39.12-.85h20.79c.1.46.21.93.31,1.41.42,1.49.95,2.36,2.19,3.28.27.22.54.44.81.66.14.12.29.23.44.35.53.43,1.05.88,1.57,1.33.78.68,1.58,1.34,2.38,1.99.48.39.95.79,1.42,1.19.92.78,1.86,1.53,2.81,2.27q.42.33.58.49c.24.01.48.02.71.02.15,0,.31,0,.47,0,.17,0,.34,0,.52,0q.27,0,.54,0c.59,0,1.19,0,1.78,0,.41,0,.82,0,1.23,0,.97,0,1.94,0,2.91,0,1.1,0,2.21,0,3.31,0,2.27,0,4.55,0,6.82,0-.09-.48-.2-.94-.37-1.4-.04-.12-.09-.24-.13-.36-.05-.13-.09-.25-.14-.38q-.07-.2-.15-.41c-.16-.44-.32-.89-.49-1.33-.11-.31-.23-.63-.34-.94-.79-2.16-1.59-4.31-2.4-6.45-.99-2.63-1.97-5.26-2.94-7.89-.09-.24-.18-.48-.27-.71-.62-1.66-1.23-3.31-1.85-4.97-.04-.11-.08-.21-.12-.33-.67-1.8-1.34-3.6-2-5.4-1.19-3.21-2.38-6.41-3.57-9.62q-.07-.18-.13-.36c-1.07-2.89-2.15-5.78-3.22-8.66-1.03-2.77-2.06-5.55-3.09-8.32-.18-.48-.36-.96-.54-1.45-.13-.35-.26-.69-.39-1.04-.16-.44-.33-.89-.49-1.33-.34-.92-.68-1.83-1.01-2.76q-.08-.21-.15-.42c-.09-.25-.17-.49-.26-.74-.34-.95-.76-1.4-1.59-1.94-.29-.22-.59-.44-.88-.66-.33-.25-.66-.49-.99-.74-.72-.53-1.43-1.08-2.14-1.63-.62-.48-1.24-.95-1.86-1.43-.8-.61-1.59-1.22-2.38-1.83-.15-.11-.3-.22-.46-.34-.34-.26-.61-.51-.91-.82-1.41-1.37-2.84-1.34-4.73-1.33-.4,0-.81.02-1.21.02-.42,0-.84,0-1.25,0-.98,0-1.96.02-2.95.03-1.12.02-2.24.03-3.36.03-2.3.02-4.6.04-6.9.08-.45,1.07-.89,2.14-1.3,3.23q-.07.19-.14.37c-.15.41-.3.81-.45,1.22-.11.29-.22.59-.33.88-.3.8-.59,1.59-.88,2.39-.32.86-.63,1.71-.95,2.57-.39,1.06-.79,2.13-1.18,3.19l-.39,1.07c-.06.18-.13.35-.2.53-.39,1.06-.79,2.12-1.18,3.19-.25.67-.5,1.35-.75,2.02-.12.32-.24.63-.35.95-.16.43-.32.87-.49,1.3q-.07.19-.15.39-.25.68-.33,1.4h-8.28c-.1-.26-.21-.52-.31-.78-.11-.19-.23-.38-.36-.56-.07-.1-.14-.2-.21-.31-.07-.11-.15-.21-.22-.32-.08-.11-.15-.22-.23-.34-1.06-1.51-2.26-2.9-3.51-4.26-.07-.08-.14-.15-.21-.23-1.64-1.8-3.36-3.52-5.08-5.24-.4-.4-.79-.79-1.19-1.19-.31-.31-.62-.62-.93-.93-.22-.22-.43-.43-.65-.65-.78-.78-1.57-1.52-2.41-2.23-.1-.09-.2-.17-.31-.26-4.73-3.99-10.33-6.9-16.42-8.09q-.3-.06-.6-.12c-2.01-.37-4.03-.47-6.07-.47-.17,0-.35,0-.53,0-1.57.01-3.12.13-4.68.34Z"/>
    <path class="cls-45" d="M39.63,45.81c.14,0,.27,0,.41,0,.44,0,.88,0,1.32,0,.15,0,.3,0,.46,0,3.24,0,6.43.24,9.51,1.3.24.08.48.16.73.24,3.47,1.16,6.69,2.67,9.59,4.92q.19.14.38.29c1.13.88,2.18,1.85,3.21,2.84.12.11.24.22.36.34,3.81,3.7,6.75,8.93,8.08,14.04v.31h-13.91c-.46-.88-.93-1.75-1.41-2.66-.29-.45-.57-.87-.9-1.29-.08-.1-.16-.2-.24-.31-2.44-3.09-5.49-5.18-9.21-6.43-.15-.05-.31-.1-.47-.16-4.63-1.5-10.17-1.04-14.51,1.15-2.06,1.07-3.82,2.46-5.47,4.06-.11.1-.22.21-.33.32-3.04,3.16-4.88,7.85-5.14,12.19,0,.13-.02.26-.02.39-.29,5.69,1.49,11.25,5.28,15.53,3.38,3.72,8,6.02,13.04,6.31,5.1.19,10.17-1.13,14.07-4.56.14-.12.27-.23.42-.35,3.51-3.03,5.47-7.38,6.46-11.84h13.29q-.18,2.58-.41,3.61c-.03.12-.05.25-.08.38-.34,1.48-.84,2.89-1.38,4.29-.05.13-.1.27-.15.4-1.21,3.11-2.84,5.97-5,8.51-.16.19-.32.39-.49.58-.79.94-1.58,1.87-2.48,2.7-.09.08-.18.16-.27.25-3.48,3.13-7.37,5.39-11.77,6.94-.12.04-.25.09-.37.14-1.99.72-3.99,1.08-6.09,1.37-.29.04-.58.09-.86.14-.58.09-1.15.1-1.74.1q-.18,0-.36,0-4.89.04-7.3-.5c-.15-.03-.31-.07-.46-.1-4.58-.99-8.83-2.64-12.67-5.37-.09-.06-.17-.12-.27-.19-1.04-.74-2-1.55-2.94-2.42-.33-.31-.67-.6-1.02-.89-2.49-2.18-4.38-5.02-5.94-7.91-.06-.11-.12-.22-.18-.33-1.73-3.26-2.92-6.96-3.42-10.61q-.04-.28-.08-.57c-.09-.76-.1-1.51-.11-2.27,0-.15,0-.3,0-.46,0-.32,0-.64,0-.95,0-.48,0-.95-.01-1.43-.02-2.84.31-5.53,1.14-8.24.03-.11.07-.22.1-.33,1.95-6.37,5.78-12.09,11-16.24.15-.12.3-.25.45-.37,4.54-3.63,9.95-5.73,15.65-6.66q.25-.04.51-.08c.67-.08,1.33-.1,2.01-.11Z"/>
    <path class="cls-45" d="M99,47.09h16.73c.49,1.17.96,2.33,1.4,3.52.06.15.11.31.17.47.12.34.25.67.37,1.01.31.84.62,1.68.93,2.52.11.3.22.61.34.91.84,2.29,1.69,4.57,2.54,6.86.21.58.43,1.15.64,1.73.26.7.52,1.4.78,2.11.62,1.68,1.25,3.35,1.87,5.03,2.05,5.52,4.1,11.04,6.16,16.56.24.64.48,1.29.72,1.93.06.16.12.32.18.49.81,2.17,1.62,4.35,2.43,6.53.04.12.09.24.13.36.44,1.19.88,2.37,1.32,3.56.16.44.33.89.49,1.33.08.22.16.43.24.65.46,1.24.92,2.47,1.39,3.71.09.23.18.47.26.7.17.44.34.89.5,1.33.08.2.15.4.23.6.07.17.13.35.2.53q.14.41.14.72h-14.07q-2.32-6.63-3.37-9.7c-.09-.26-.18-.52-.27-.78-.12-.36-.25-.72-.37-1.09-.04-.11-.07-.21-.11-.32q-.25-.73-.25-1.08h-26.89c-.1.46-.21.93-.31,1.41-.11.35-.22.7-.34,1.05q-.1.29-.2.59c-.07.21-.14.42-.22.63-.08.22-.15.44-.23.66-.16.46-.31.91-.47,1.37-.2.58-.4,1.16-.6,1.74-.15.45-.31.9-.47,1.35-.07.21-.15.43-.22.64-.1.3-.21.6-.31.9-.06.17-.12.34-.18.52-.26.71-.55,1.42-.83,2.12h-12.35c.26-.53.55-.95.91-1.41,4.15-5.32,7.06-12.22,7.09-19.03,0-.32,0-.64.01-.97,0-.5.01-1,.01-1.5,0-.49,0-.98.02-1.47,0-.15,0-.29,0-.45.02-1.19.27-1.79.72-3h12.66q-1.25,3.6-1.41,3.91h20.48c-.31-.77-.62-1.55-.94-2.34-.2-.52-.39-1.03-.58-1.55-.05-.14-.1-.27-.15-.41-.16-.44-.33-.89-.49-1.33-.12-.32-.23-.64-.35-.95-.24-.66-.48-1.32-.73-1.97-.55-1.5-1.1-2.99-1.66-4.49-.11-.29-.22-.58-.32-.88-.28-.77-.57-1.53-.85-2.3-.13-.35-.26-.7-.39-1.04-.42-1.15-.85-2.29-1.27-3.44-.14-.37-.27-.74-.41-1.11q-.8-2.95-2.18-5.54c-.41,1.12-.83,2.25-1.24,3.37-.19.52-.39,1.04-.58,1.57-.19.51-.37,1.01-.56,1.52-.1.28-.21.57-.31.85-.47,1.26-.92,2.53-1.37,3.79h-12.66q.53-1.76.79-2.46.09-.24.18-.48t.19-.51c.07-.18.14-.37.21-.56.19-.5.37-1,.56-1.5.2-.53.39-1.06.59-1.59.25-.67.5-1.34.75-2.02.64-1.73,1.29-3.46,1.93-5.19.09-.25.19-.5.28-.76.18-.5.37-.99.55-1.49q.07-.18.14-.37c.09-.24.18-.49.27-.73.26-.7.52-1.4.78-2.1.08-.21.16-.43.24-.64.11-.29.22-.58.32-.87.06-.16.12-.33.18-.5.16-.41.32-.82.48-1.23Z"/>
    <path class="cls-118" d="M118.23,48.81c.44.21.81.44,1.19.74.11.09.22.17.33.26q.18.14.35.28c1.05.82,2.1,1.63,3.17,2.42,1.25.94,2.49,1.89,3.71,2.86.13.08.25.17.39.25.53.5.69.99.92,1.67q.07.2.14.4c.1.29.2.57.3.86.22.62.44,1.24.66,1.86.12.33.23.65.35.98.56,1.59,1.16,3.17,1.75,4.75.3.79.6,1.58.89,2.37.06.16.12.31.18.47.61,1.62,1.21,3.23,1.8,4.85.22.6.44,1.19.66,1.79.06.15.11.31.17.47.76,2.06,1.52,4.11,2.28,6.17.08.21.15.41.23.62.31.84.62,1.67.93,2.51.53,1.42,1.05,2.84,1.58,4.26,1.45,3.91,2.9,7.82,4.36,11.73.3.8.6,1.61.9,2.41.17.46.34.91.51,1.37.04.11.08.22.13.34.56,1.5,1.11,3,1.67,4.49.29.79.59,1.58.88,2.37.24.63.47,1.26.71,1.9.18.48.36.96.54,1.44.06.17.13.34.19.51.36.97.68,1.94.97,2.94-.44-.22-.82-.44-1.2-.74-.11-.09-.22-.17-.33-.26-.12-.09-.24-.19-.36-.28-.25-.2-.51-.4-.76-.6-.13-.1-.26-.2-.39-.31-.6-.47-1.2-.93-1.79-1.4-.73-.57-1.46-1.14-2.19-1.71-.13-.1-.26-.2-.39-.3-.25-.19-.49-.38-.74-.58-.11-.09-.22-.17-.34-.26-.1-.08-.2-.15-.3-.23-.24-.18-.49-.35-.74-.51q-.19-.43-.39-.98c-.04-.1-.07-.2-.11-.31-.08-.23-.16-.45-.24-.68-.22-.64-.45-1.28-.68-1.92-.05-.14-.1-.28-.15-.42-.6-1.69-1.23-3.37-1.86-5.04-.26-.69-.51-1.37-.77-2.06-.07-.18-.13-.35-.2-.53-.76-2.03-1.51-4.05-2.26-6.08-.15-.41-.3-.82-.46-1.23-.35-.93-.69-1.86-1.04-2.8-.7-1.9-1.41-3.8-2.11-5.7-.11-.3-.22-.6-.33-.9-1.3-3.5-2.6-6.99-3.89-10.49-.9-2.43-1.81-4.87-2.71-7.3-.08-.21-.15-.41-.23-.62q-.6-1.63-.89-2.41c-.8-2.15-1.6-4.31-2.4-6.46-.12-.33-.25-.66-.37-.99-.08-.21-.16-.43-.24-.64q-.06-.16-.12-.32c-.23-.62-.46-1.24-.7-1.86-.18-.47-.35-.93-.52-1.4-.06-.17-.13-.34-.19-.51q-.09-.23-.17-.47c-.05-.13-.1-.27-.15-.41q-.11-.32-.11-.64Z"/>
    <path class="cls-11" d="M40.38,70.7v11.72h19.23q-.18,1.59-.4,2.22c-.05.14-.1.28-.15.42-.05.14-.11.29-.16.44q-.08.23-.17.46c-1.79,4.69-5.3,8.29-9.85,10.33-3.47,1.38-7.49,1.82-11.15.99-.16-.03-.32-.07-.49-.1-.47-.11-.93-.23-1.39-.37q-.19-.05-.39-.09c-.97-.31-1.38-.97-1.84-1.83-.15-.29-.29-.59-.43-.89-.08-.16-.16-.32-.24-.49-1.87-4.35-1.42-9.99.25-14.32.97-2.36,4.26-8.48,7.18-8.48Z"/>
    <path class="cls-58" d="M76.34,82.42h2.03v.31h.31v-.31h4.69q.18,2.29-.15,3.11-.1.26-.21.53c-.07.18-.15.35-.22.53-.07.18-.14.37-.22.56q-.39.98-.6,1.36-.23.08-.47.16c.03.11.07.22.1.33.07.57-.06.89-.27,1.42-.07.18-.14.36-.22.55-.08.19-.15.37-.23.57-.08.19-.15.38-.23.58-.19.47-.37.94-.56,1.41h-.31q-.02.29-.04.6c-.1.91-.41,1.7-.75,2.54-.06.15-.12.3-.18.46-.14.37-.29.73-.44,1.1h-.47c0,.19.01.37.02.57,0,.59-.11,1.07-.33,1.62l-.16-.63h-1.09v1.09h.94c-.11.72-.36,1.36-.63,2.03h-.31c-.02.2-.05.4-.07.61-.04.37-.08.62-.24.96h-1.41v1.41h.78c-.15.57-.31,1.13-.47,1.72h-.47c0,.2,0,.4,0,.61q0,.61-.17.96h-1.41v1.56h.78q-.23.88-.64,1.15c-.1.03-.19.06-.29.1v-1.09c-.1,0-.2,0-.3,0-.13,0-.26,0-.39,0-.13,0-.26,0-.39,0q-.32-.02-.48-.17c-.02-.52,0-1.04,0-1.56h-1.56v-1.56h-1.56v-1.72h-1.72v-1.56h-.78c.2-.32.41-.63.63-.94h.31v.94h1.41v-1.56h-.78c.28-.51.44-.76.94-1.09v.94h1.41v-1.41h-1.09c.12-.16.25-.32.37-.49.45-.6.9-1.21,1.34-1.83.07-.09.13-.19.2-.28.52-.73.99-1.48,1.44-2.26.08-.1.16-.2.25-.3h.63c0-.19-.02-.38-.03-.58,0-.61.13-.96.5-1.46.05.1.1.21.16.31h.94v-.94h-.78c.23-.62.46-1.24.69-1.87.07-.18.13-.36.2-.54l.19-.51c.06-.16.12-.31.18-.47q.15-.36.3-.52c.26,0,.52,0,.78,0v-.78h-.47c.06-.78.17-1.5.37-2.25.35-1.32.52-2.66.72-4.01Z"/>
    <path class="cls-29" d="M30.38,64.6h1.72q.02,1.21,0,1.56-.16.16-.48.17l-1.08-.02v1.56h1.56v1.56h1.56v-1.56h1.56v1.72h-1.41v1.56h1.56v1.72h-1.56v1.41c.1.05.21.1.31.16l-.63.63v-.47h-1.25v1.25h.78c-.26.86-.63,1.64-1.02,2.44-.23.48-.45.94-.54,1.47h-.63c.01.09.03.18.04.27.11.83.08,1.48-.11,2.3-.78,4-.43,8.48,1.01,12.28-.76-.23-1.22-.66-1.78-1.2-.09-.09-.18-.17-.27-.26-.18-.17-.35-.34-.53-.51-.18-.17-.37-.34-.55-.51-3.06-2.84-4.78-7.55-5.03-11.64-.02-.54-.02-1.09-.02-1.63,0-.19,0-.38,0-.58q.04-3.67.67-4.31c.26,0,.52,0,.78,0v-.78h-.63c.2-.91.49-1.72.87-2.57.05-.11.1-.22.15-.34q.36-.82.54-1c.31,0,.63,0,.94,0-.05-.46-.1-.93-.16-1.41.68-.45,1.08-.27,1.88-.16v-1.41h-.47q.27-.61.63-.78v.63h1.56v-1.56Z"/>
    <path class="cls-81" d="M94.31,104.15h1.41v1.41h-1.41v1.56h1.56v-1.41h1.41v1.41h-1.25v1.72h1.56v1.56h1.56c.01.65,0,1.24-.16,1.88h-1.25v1.41c.21.05.41.1.63.16-.18.52-.36,1.04-.54,1.55-.05.15-.1.3-.15.45-.05.14-.1.28-.15.43q-.07.2-.14.39t-.27.46c-.31,0-.63,0-.94,0v1.41h.47c-.1.31-.21.62-.31.94-.43-.41-.8-.83-1.15-1.31-.1-.13-.19-.26-.29-.39q-.15-.2-.3-.4c-.1-.13-.2-.27-.3-.4q-.8-1.09-1.09-1.71h.94v-1.41h-1.41v.78c-.27-.25-.53-.51-.78-.78v-.31h.47v-1.25h-1.25l-.16.31c-.25-.5-.2-1.02-.16-1.56q.16-.39.31-.63h1.25v-1.56h-.63c.05-.23.1-.46.15-.68.03-.13.05-.25.08-.38q.08-.34.24-.65h.31q0-.25-.02-.51.02-.59.33-1.21h1.41v-1.25Z"/>
    <path class="cls-39" d="M47.13,73.04c.8.55,1.66,1.26,2.01,2.19.12.87.17,1.75-.33,2.51-.53.6-1.02.88-1.82.99-1.02.06-1.66-.05-2.43-.73-.78-.8-1.28-1.44-1.44-2.57.02-.85.47-1.45,1.02-2.07.88-.66,1.97-.64,2.99-.31Z"/>
    <path class="cls-52" d="M57.58,69.92v.16h-16.26c4.36-3.27,11.87-3.33,16.26-.16Z"/>
    <path class="cls-38" d="M80.82,72.83c.13,0,.27-.02.4-.02.6.12.98.4,1.37.86.24.44.4.89.57,1.36.09.25.18.5.28.76.04.12.09.24.13.37.2.54.42,1.07.65,1.59q.1.3.1.93c-.53.05-1.04.07-1.56,0-.26-.26-.52-.52-.78-.78-.52-.11-1.03-.14-1.56-.16-.05.31-.1.62-.16.94q-1.28.1-1.74-.24c-.4-1.11.34-2.45.72-3.49.07-.18.13-.36.2-.55q.56-1.53,1.4-1.56Z"/>
    <path class="cls-38" d="M68.63,72.83c.13,0,.27-.02.4-.02.6.12.98.4,1.37.86.24.44.4.89.57,1.36.09.25.18.5.28.76.04.12.09.24.13.37.2.54.42,1.07.65,1.59q.1.3.1.93c-.53.05-1.04.07-1.56,0-.26-.26-.52-.52-.78-.78-.52-.11-1.03-.14-1.56-.16-.05.31-.1.62-.16.94q-1.28.1-1.74-.24c-.4-1.11.34-2.45.72-3.49.07-.18.13-.36.2-.55q.56-1.53,1.4-1.56Z"/>
    <path class="cls-35" d="M82.9,90.39l.16.47h.47c-.09,2.53-.61,5-1.56,7.35h-.63v.94h.31c-.38,1.35-1.04,2.53-1.72,3.75h-.31c0,.14.02.28.03.42-.03.6-.09.86-.5,1.3-.44.07-.8.04-1.25,0v1.09h.31q-.27.76-.63.94v-.63h-.31c.22-1.18.52-2.38,1.09-3.44q.33-.1.63-.16c0-.09-.01-.19-.02-.28-.05-1.1.19-1.93.62-2.94.06-.14.11-.28.17-.42.1-.26.21-.52.32-.78.41-1.02.78-2.06,1.16-3.09.05-.13.1-.26.15-.39.15-.41.3-.82.45-1.23.1-.28.21-.56.31-.84.25-.68.5-1.37.76-2.05Z"/>
    <path class="cls-16" d="M55.23,72.89h3.44c.05.41.1.83.16,1.25l.47.31v.31l-.78.16c.1.08.21.16.31.24.42.51.36.84.31,1.48l-.31.16c.1.08.21.15.31.23.45.56.34.93.31,1.64-.59.02-1.17.03-1.76.04-.17,0-.33.01-.5.02-.16,0-.32,0-.49,0-.15,0-.29,0-.45,0q-.4-.07-.76-.31c-.36-.52-.34-.97-.32-1.57,0-.11,0-.23,0-.34,0-.36.01-.72.02-1.08,0-.25,0-.49,0-.74,0-.6.02-1.2.03-1.8Z"/>
    <path class="cls-108" d="M49.92,72.89c.4-.01.79-.02,1.19-.03.11,0,.22,0,.34-.01,1.02-.01,1.75.3,2.51,1,.5.52.67.96.7,1.68-.07.57-.27.86-.67,1.27-.64.35-1.15.54-1.88.47v1.41q-1.28.08-1.82-.24c-.42-.43-.46-.65-.46-1.24,0-.11,0-.22.01-.33,0-.11,0-.23,0-.34,0-.36.01-.72.02-1.08,0-.25,0-.49.01-.74,0-.6.02-1.2.04-1.8Z"/>
    <path class="cls-20" d="M97.75,72.89q.47.21.78.47.14.09.28.19c.31.48.21.97.19,1.53-.52-.05-1.03-.1-1.56-.16.14.08.27.16.41.24.73.49,1.37,1.07,1.57,1.95-.15.64-.43.92-.89,1.4-.44.22-.81.19-1.3.2-.18,0-.35,0-.54.01-.68-.07-1.04-.33-1.57-.74-.25-.34-.24-.56-.22-.98,0-.13,0-.25.01-.38,0-.1.01-.19.02-.29.14.05.28.1.43.16q.52.19,1.13.16c-.09-.08-.17-.15-.26-.23-.11-.1-.23-.2-.34-.3-.11-.1-.22-.2-.34-.3q-.61-.54-.67-.89c-.02-.7-.02-1,.43-1.57.78-.59,1.49-.55,2.44-.47Z"/>
    <path class="cls-105" d="M112.45,77.58c.32.32.41.5.56.91.05.12.09.25.14.37.05.13.1.27.15.41.05.14.1.27.16.42.11.29.22.58.33.87.17.45.33.89.5,1.33.11.28.21.56.32.85.05.13.1.27.15.4.05.12.09.25.14.38.04.11.08.22.12.33q.09.29.09.76h-5.16c.21-.96.44-1.83.78-2.74q.07-.18.13-.36c.09-.25.19-.5.28-.75.14-.38.29-.76.43-1.15.09-.24.18-.48.27-.73.04-.11.09-.23.13-.35q.3-.8.48-.97Z"/>
    <path class="cls-101" d="M88.84,72.89q1.66-.13,2.35.39.23.19.46.39h.31c.05-.13.1-.26.16-.39q.31-.39.67-.46,1.08-.04,1.5.34.17.36.07.73c-.24.43-.5.83-.79,1.23-.1.14-.2.28-.3.42q-.11.16-.23.31l-.16-.31-.63.31c-.01.35-.02.7-.03,1.06,0,.2-.01.39-.02.59.05.56.13.77.51,1.17q-1.12.08-1.68-.25-.35-.38-.4-.86c.01-.19.02-.38.03-.57-.03-1.4-.65-2.21-1.49-3.3q-.37-.5-.37-.81Z"/>
    <path class="cls-104" d="M84.78,72.89q1.23-.09,1.8.21c.37.67.29,1.35.27,2.1,0,.15,0,.31,0,.47,0,.38-.02.76-.03,1.14q.14,0,.29,0c.13,0,.25,0,.38,0,.13,0,.25,0,.38,0q.35.02.83.26c.43.56.32.94.3,1.64-.59.02-1.17.03-1.76.04-.17,0-.33.01-.5.02-.16,0-.32,0-.49,0-.15,0-.29,0-.45,0q-.4-.07-.76-.31c-.36-.52-.34-.97-.32-1.57,0-.11,0-.23,0-.34,0-.36.01-.72.02-1.08,0-.25,0-.49,0-.74,0-.6.02-1.2.03-1.8Z"/>
    <path class="cls-51" d="M99.79,72.89h3.91c.05.52.1,1.03.16,1.56l.47.31h-1.25v3.91q-1.41,0-1.8-.21c-.36-.65-.29-1.28-.27-2.02,0-.15,0-.29,0-.44,0-.36.02-.72.03-1.08h-.63q-.35-.31-.63-.78v-1.25Z"/>
    <path class="cls-53" d="M72.59,72.89c.2,0,.4,0,.6-.01q.17,0,.34,0c.45.03.72.19,1.08.46.12.08.23.16.35.25q.29.25.61.72c.05-.46.1-.93.16-1.41q1.13-.1,1.66.32c.48.58.46.88.45,1.63,0,.11,0,.22,0,.33,0,.35-.01.7-.02,1.05,0,.24,0,.47-.01.71,0,.58-.02,1.16-.04,1.74q-1.26.1-1.81-.27c-.1-.12-.19-.24-.29-.37-.1-.13-.2-.26-.31-.39-.28-.42-.46-.81-.56-1.31.41.4.77.77,1.09,1.25l.78.16v-4.53h-.78v2.97l-.47-.31v-.31h.31c-.2-.54-.43-.95-.78-1.41v-.31h-.47c.31.46.62.93.94,1.41h-.47c-.34-.47-.62-.96-.92-1.45q-.33-.51-1.11-.58v4.53h.78v-2.97q.9.9.94,1.41c-.01.35-.04.7-.07,1.06-.02.18-.03.37-.05.55-.01.14-.03.28-.04.42h-.16c-.1-.36-.21-.72-.31-1.09q-.04.46,0,.94l.47.31v.31q-1.15.08-1.58-.24c-.4-.51-.37-.95-.36-1.57,0-.11,0-.23,0-.34,0-.36.01-.72.02-1.08,0-.25,0-.49,0-.74,0-.6.02-1.2.03-1.8Z"/>
    <path class="cls-53" d="M60.39,72.89c.2,0,.4,0,.6-.01q.17,0,.34,0c.45.03.72.19,1.08.46.12.08.23.16.35.25q.29.25.61.72c.05-.46.1-.93.16-1.41q1.13-.1,1.66.32c.48.58.46.88.45,1.63,0,.11,0,.22,0,.33,0,.35-.01.7-.02,1.05,0,.24,0,.47-.01.71,0,.58-.02,1.16-.04,1.74q-1.26.1-1.81-.27c-.1-.12-.19-.24-.29-.37-.1-.13-.2-.26-.31-.39-.28-.42-.46-.81-.56-1.31.41.4.77.77,1.09,1.25l.78.16v-4.53h-.78v2.97l-.47-.31v-.31h.31c-.2-.54-.43-.95-.78-1.41v-.31h-.47c.31.46.62.93.94,1.41h-.47c-.34-.47-.62-.96-.92-1.45q-.33-.51-1.11-.58v4.53h.78v-2.97q.9.9.94,1.41c-.01.35-.04.7-.07,1.06-.02.18-.03.37-.05.55-.01.14-.03.28-.04.42h-.16c-.1-.36-.21-.72-.31-1.09q-.04.46,0,.94l.47.31v.31q-1.15.08-1.58-.24c-.4-.51-.37-.95-.36-1.57,0-.11,0-.23,0-.34,0-.36.01-.72.02-1.08,0-.25,0-.49,0-.74,0-.6.02-1.2.03-1.8Z"/>
    <path class="cls-29" d="M72.59,62.73c1.93,1.61,3.43,3.46,4.92,5.47.1.13.2.26.3.4q.14.19.28.38c.08.11.16.22.25.34q.2.3.35.77h-3.28c-.1-.29-.2-.57-.3-.86-.68-1.95-1.37-3.86-2.3-5.71q-.22-.46-.22-.77Z"/>
    <path class="cls-76" d="M69.46,101.18h.16v1.56h1.56v1.56h-1.56v1.56h-3.28v-1.56h-.78c.2-.32.41-.63.63-.94h.31v.94h1.41v-1.56h-.78c.28-.51.44-.76.94-1.09v.94h1.41v-1.41Z"/>
    <path class="cls-100" d="M72.9,73.2h.78q.34.37.65.84.42.63.91,1.19c-.31-.46-.62-.93-.94-1.41.05-.1.1-.21.16-.31q.96.94,1.25,1.41v.63h-.31q.15.23.31.47c.05-.93.1-1.86.16-2.81h.78v4.53q-.78,0-1.06-.27c-.08-.12-.15-.23-.23-.35-.14-.21-.28-.42-.43-.63h-.16c-.05.72-.1,1.44-.16,2.19l-.16-.31q-.32-.18-.63-.31v-1.09c.15.15.31.31.47.47.04-.24.08-.48.12-.72.02-.13.04-.27.07-.41q0-.56-.65-1.37c-.05.93-.1,1.86-.16,2.81h-.78v-4.53Z"/>
    <path class="cls-100" d="M60.71,73.2h.78q.34.37.65.84.42.63.91,1.19c-.31-.46-.62-.93-.94-1.41.05-.1.1-.21.16-.31q.96.94,1.25,1.41v.63h-.31q.15.23.31.47c.05-.93.1-1.86.16-2.81h.78v4.53q-.78,0-1.06-.27c-.08-.12-.15-.23-.23-.35-.14-.21-.28-.42-.43-.63h-.16c-.05.72-.1,1.44-.16,2.19l-.16-.31q-.32-.18-.63-.31v-1.09c.15.15.31.31.47.47.04-.24.08-.48.12-.72.02-.13.04-.27.07-.41q0-.56-.65-1.37c-.05.93-.1,1.86-.16,2.81h-.78v-4.53Z"/>
    <path class="cls-33" d="M72.9,106.03h1.56c0,.46,0,.92,0,1.39,0,.13,0,.26,0,.4q0,.19,0,.38t0,.35-.17.61h-1.41v1.56h.78q-.23.88-.64,1.15c-.1.03-.19.06-.29.1v-1.09c-.1,0-.2,0-.3,0q-.19,0-.39,0-.19,0-.39,0-.32-.02-.48-.17c-.01-.23-.02-.47-.02-.7,0-.14,0-.28,0-.43,0-.15,0-.3,0-.45,0-.15,0-.3,0-.45,0-.37,0-.74,0-1.1h1.72v-1.56Z"/>
    <path class="cls-43" d="M47.13,73.04c.8.55,1.66,1.26,2.01,2.19.12.87.17,1.75-.33,2.51-.53.6-1.02.88-1.82.99-1.02.06-1.66-.05-2.43-.73-.78-.8-1.28-1.44-1.44-2.57.02-.85.47-1.45,1.02-2.07.88-.66,1.97-.64,2.99-.31ZM44.14,73.67c-.46.51-.66,1.03-.69,1.72.05.85.31,1.5.93,2.09.68.44,1.32.49,2.11.41.84-.31,1.32-.77,1.72-1.56.08-.83.1-1.51-.27-2.27-.66-.74-1.15-.97-2.13-1.03-.66.03-1.14.23-1.66.64Z"/>
    <path class="cls-91" d="M49.92,72.89c.4-.01.79-.02,1.19-.03.11,0,.22,0,.34-.01,1.02-.01,1.75.3,2.51,1,.5.52.67.96.7,1.68-.07.57-.27.86-.67,1.27-.64.35-1.15.54-1.88.47v1.41q-1.28.08-1.82-.24c-.42-.43-.46-.65-.46-1.24,0-.11,0-.22.01-.33,0-.11,0-.23,0-.34,0-.36.01-.72.02-1.08,0-.25,0-.49.01-.74,0-.6.02-1.2.04-1.8ZM50.23,73.2v4.69c.41.1.83.21,1.25.31.1.05.21.1.31.16,0-.2.02-.4.03-.61,0-.11.01-.22.02-.34-.02-.1-.03-.2-.05-.3l-.47-.31-.16-.47c.09,0,.18.02.27.03.68.04,1.14.05,1.68-.4.46-.48.53-.59.6-1.24-.06-.67-.21-.89-.67-1.36-.5-.25-1.04-.17-1.58-.17q-.61,0-1.23,0Z"/>
    <path class="cls-39" d="M97.15,73.1c.14.01.28.03.42.04q.34.05.5.21c0,.26,0,.52,0,.78q-.16-.02-.33-.04c-.14-.02-.28-.03-.43-.05-.14-.02-.28-.03-.43-.05q-.38-.05-.69.14-.1.32-.16.63c.1.03.21.05.31.08q1.59.44,2.03,1.01c.05.5,0,.93-.16,1.41-.47.5-.94.62-1.62.65-.53-.03-.87-.11-1.35-.34v-.78h2.03c.05-.21.1-.41.16-.63-.11-.03-.21-.05-.32-.08q-1.51-.41-1.87-1.01c-.08-.44-.09-.82,0-1.25.53-.72,1.04-.82,1.9-.72Z"/>
    <path d="M55.55,73.2h2.81v.63h-2.03v1.25h1.72v.78h-1.72v1.09h2.19v.78h-2.97v-4.53Z"/>
    <path class="cls-15" d="M46.48,73.98c.44.28.7.47.94.94.08.7.05,1.02-.32,1.62-.55.49-.82.59-1.55.57-.59-.31-.88-.54-1.25-1.09-.07-.66-.07-.98.29-1.54.56-.56,1.12-.6,1.9-.49Z"/>
    <path class="cls-10" d="M94.31,104.15h1.41v1.41h-1.41v1.56h1.56v-1.41h1.41v1.41h-1.25v1.72h-.16v-1.56h-1.56v1.41h-1.56v-1.56h1.41v-1.56h-1.25v-.16h1.41v-1.25Z"/>
    <path class="cls-22" d="M81.97,73.98c.25.49.47.99.68,1.5.07.16.14.33.21.5.13.31.25.63.37.95q.37.98,1.08,1.74c-.53.05-1.04.07-1.56,0-.26-.26-.52-.52-.78-.78-.52-.11-1.03-.14-1.56-.16l-.16.94q-1.28.1-1.74-.24c-.33-.93.14-1.86.49-2.73l.31.16c-.07.25-.15.51-.22.76-.04.14-.08.28-.13.43q-.12.37-.27.69.38-.02.78-.16l.31-.78h2.19c.1.26.21.52.31.78q.4.14.78.16c-.03-.09-.06-.17-.1-.26-.15-.39-.29-.79-.44-1.18q-.08-.2-.15-.41c-.05-.13-.1-.26-.15-.4-.05-.12-.09-.24-.14-.37-.11-.32-.21-.63-.27-.97l.16-.16Z"/>
    <path class="cls-22" d="M69.77,73.98c.25.49.47.99.68,1.5.07.16.14.33.21.5.13.31.25.63.37.95q.37.98,1.08,1.74c-.53.05-1.04.07-1.56,0-.26-.26-.52-.52-.78-.78-.52-.11-1.03-.14-1.56-.16l-.16.94q-1.28.1-1.74-.24c-.33-.93.14-1.86.49-2.73l.31.16c-.07.25-.15.51-.22.76-.04.14-.08.28-.13.43q-.12.37-.27.69.38-.02.78-.16l.31-.78h2.19c.1.26.21.52.31.78q.4.14.78.16c-.03-.09-.06-.17-.1-.26-.15-.39-.29-.79-.44-1.18q-.08-.2-.15-.41c-.05-.13-.1-.26-.15-.4-.05-.12-.09-.24-.14-.37-.11-.32-.21-.63-.27-.97l.16-.16Z"/>
    <path class="cls-117" d="M80.11,100.7c.14,0,.28,0,.43,0q.16,0,.33,0c-.09.59-.26,1.02-.56,1.53-.07.12-.14.25-.22.37-.05.09-.11.18-.17.28h-.31c0,.14.02.28.03.42-.03.6-.09.86-.5,1.3-.44.07-.8.04-1.25,0v1.09h.31q-.27.76-.63.94v-.63h-.31c.22-1.18.52-2.38,1.09-3.44.21-.05.41-.1.63-.16v-1.56c.39-.2.67-.17,1.11-.17Z"/>
    <path class="cls-38" d="M89.31,73.2q.49-.1,1.09,0c.3.38.52.77.74,1.21q.16.38.51.51c.04-.11.08-.22.12-.33.23-.53.45-.95.82-1.39q.51-.06.94,0c-.22.64-.54,1.11-.95,1.65-.66.95-.8,1.74-.77,2.88h-.78c0-.12.01-.24.02-.36,0-1.72-.76-2.69-1.74-4.01v-.16Z"/>
    <path class="cls-92" d="M76.81,73.04q.63.31.94.63c.03.38.04.74.03,1.12,0,.11,0,.22,0,.34,0,.35,0,.71,0,1.06,0,.24,0,.48,0,.72,0,.59,0,1.18-.02,1.76q-1.26.1-1.81-.27c-.1-.12-.19-.24-.29-.37-.1-.13-.2-.26-.31-.39-.28-.42-.46-.81-.56-1.31.41.4.77.77,1.09,1.25.31.05.62.1.94.16v-4.69Z"/>
    <path class="cls-92" d="M64.61,73.04q.63.31.94.63c.03.38.04.74.03,1.12,0,.11,0,.22,0,.34,0,.35,0,.71,0,1.06,0,.24,0,.48,0,.72,0,.59,0,1.18-.02,1.76q-1.26.1-1.81-.27c-.1-.12-.19-.24-.29-.37-.1-.13-.2-.26-.31-.39-.28-.42-.46-.81-.56-1.31.41.4.77.77,1.09,1.25.31.05.62.1.94.16v-4.69Z"/>
    <path class="cls-83" d="M56.33,75.86h1.88c.1.21.21.41.31.63h-1.25v.31c.11,0,.21-.01.32-.02q1.13-.05,1.65.26c.31.56.23,1,.21,1.64-.59.01-1.18.02-1.77.03-.17,0-.34,0-.51.01-.16,0-.32,0-.49,0-.15,0-.3,0-.45,0q-.38-.05-.67-.27t-.18-.56h3.13v-.94h-2.19v-1.09Z"/>
    <path d="M100.1,73.2h3.28v.78h-1.25v3.75h-.78v-3.75h-1.25v-.78Z"/>
    <path d="M85.09,73.2h.78v3.75h2.03v.78h-2.81v-4.53Z"/>
    <path class="cls-49" d="M95.25,75.23q1.08.46,2.19.94c-.05.26-.1.52-.16.78-.28,0-.56,0-.84,0-.16,0-.31,0-.47,0q-.41-.02-.72-.17c.05.26.1.52.16.78.78.25,1.48.26,2.24-.07.14-.08.28-.16.42-.24l.31-.16c-.05.21-.1.41-.16.63l.63.16q-.27.61-.63.78c-.33.02-.66.03-.99.04-.18,0-.35,0-.54.01-.68-.07-1.04-.33-1.57-.74-.25-.34-.24-.56-.22-.98,0-.13,0-.25.01-.38,0-.1.01-.19.02-.29.14.05.28.1.43.16q.52.19,1.13.16c-.09-.08-.18-.15-.27-.23-.12-.1-.23-.2-.35-.3q-.17-.15-.35-.3c-.09-.09-.18-.18-.27-.27v-.31Z"/>
    <path class="cls-88" d="M80.82,72.83c.13,0,.27-.02.4-.02.6.12.98.4,1.37.86.24.44.4.89.57,1.36.09.25.18.5.28.75.04.12.09.24.13.37.2.54.42,1.08.65,1.61q.1.29.1.76c-.75-.32-.95-.84-1.25-1.56-.2-.56-.4-1.13-.59-1.69-.18-.45-.36-.75-.66-1.12-.11-.31-.22-.62-.31-.94h-1.25c-.03.1-.06.2-.09.3-.24.81-.5,1.58-.85,2.35-.27-.64-.02-1.14.21-1.75.04-.1.07-.2.11-.3q.35-.94,1.19-.98Z"/>
    <path class="cls-88" d="M68.63,72.83c.13,0,.27-.02.4-.02.6.12.98.4,1.37.86.24.44.4.89.57,1.36.09.25.18.5.28.75.04.12.09.24.13.37.2.54.42,1.08.65,1.61q.1.29.1.76c-.75-.32-.95-.84-1.25-1.56-.2-.56-.4-1.13-.59-1.69-.18-.45-.36-.75-.66-1.12-.11-.31-.22-.62-.31-.94h-1.25c-.03.1-.06.2-.09.3-.24.81-.5,1.58-.85,2.35-.27-.64-.02-1.14.21-1.75.04-.1.07-.2.11-.3q.35-.94,1.19-.98Z"/>
    <path class="cls-14" d="M48.36,74.61q.61.27.78.63c.09.88.18,1.75-.33,2.51-.53.6-1.02.88-1.83.98-.8.04-1.43.04-2.1-.43-.14-.14-.28-.27-.43-.41v-.31c.1.03.21.05.31.08,1.25.21,1.99.08,3.03-.65.08-.07.17-.14.25-.21.05.21.1.41.16.63h.31c.29-.61.33-1.02.25-1.69-.02-.15-.03-.31-.05-.46-.01-.12-.03-.23-.05-.35h-.31v-.31Z"/>
    <path class="cls-76" d="M88.84,72.89q1.66-.13,2.35.39.23.19.46.39h.31c.05-.13.1-.26.16-.39q.31-.39.69-.44c.4,0,.79.02,1.19.05-.1.05-.21.1-.31.16-.05.1-.1.21-.16.31-.14-.03-.27-.06-.41-.1q-.54.04-.8.45c-.24.4-.46.8-.67,1.22-.58-.19-.62-.34-.89-.87-.07-.13-.14-.26-.21-.39-.05-.1-.1-.2-.15-.3h-.94c.11.14.23.28.35.43.8,1.05,1.38,1.87,1.24,3.23-.05.34-.11.69-.18,1.03h-.16c0-.14.02-.28.03-.42,0-1.68-.52-2.61-1.53-3.93q-.37-.5-.37-.81Z"/>
    <path class="cls-34" d="M72.59,73.04h.16v4.69h.94v-2.97q.9.9.94,1.41c-.01.35-.04.7-.07,1.06-.02.18-.03.37-.05.55-.01.14-.03.28-.04.42h-.16c-.1-.36-.21-.72-.31-1.09q-.04.46,0,.94l.47.31v.31q-1.15.08-1.58-.24c-.41-.53-.37-.88-.36-1.54,0-.11,0-.22,0-.33,0-.35.01-.7.02-1.05,0-.24,0-.48,0-.71,0-.58.02-1.17.03-1.75Z"/>
    <path class="cls-34" d="M60.39,73.04h.16v4.69h.94v-2.97q.9.9.94,1.41c-.01.35-.04.7-.07,1.06-.02.18-.03.37-.05.55-.01.14-.03.28-.04.42h-.16c-.1-.36-.21-.72-.31-1.09q-.04.46,0,.94l.47.31v.31q-1.15.08-1.58-.24c-.41-.53-.37-.88-.36-1.54,0-.11,0-.22,0-.33,0-.35.01-.7.02-1.05,0-.24,0-.48,0-.71,0-.58.02-1.17.03-1.75Z"/>
    <path class="cls-122" d="M53.36,76.01v.47c.15.1.31.21.47.31-.6.34-1.02.53-1.72.47v1.41q-1.31.08-1.81-.31-.11-.15-.22-.31l.16-.31c.21.05.41.1.62.15.11.03.23.05.35.08q.29.08.45.24v-1.09l-.47-.16v-.63q.15-.01.3-.03c.13-.01.26-.03.39-.04.13-.01.25-.03.38-.04.43-.06.66-.21,1.12-.21Z"/>
    <path class="cls-129" d="M101.19,82.42h1.72v.47h-1.56v1.72h-1.72c.09-.62.22-1.15.47-1.72h1.09v-.47Z"/>
    <path class="cls-65" d="M46.43,74.7q.52.06.67.21c.06.62.05,1-.24,1.55q-.38.32-.96.38t-.67-.21c-.06-.62-.05-1,.24-1.55q.38-.32.96-.38Z"/>
    <path class="cls-17" d="M58.36,73.2h.16v.78q-.93.08-1.88.16.23.63.63.78v-.31h2.03v.16c-.26.05-.52.1-.78.16.1.08.21.16.31.24.42.51.36.84.31,1.48h-1.88v-.16q.54-.08,1.09-.16c-.1-.15-.21-.31-.31-.47v-.78h-1.72v-1.25h2.03v-.63Z"/>
    <path class="cls-15" d="M102.13,73.98q.39.19.78.63c.1.64.07,1.27.05,1.91,0,.18,0,.35-.01.53,0,.43-.02.87-.04,1.3q-.39-.18-.78-.47-.09-.41-.08-.9c0-.17,0-.35,0-.53,0-.18.01-.36.02-.55q0-.28.01-.56c0-.46.02-.91.04-1.37Z"/>
    <path class="cls-44" d="M103.43,82.88c.4,0,.8.01,1.21.02v1.72h-1.72q-.02-1.21,0-1.56.16-.16.51-.17Z"/>
    <path class="cls-99" d="M103.54,73.04h.16c0,.1.01.2.02.3q.02.19.03.39c0,.13.02.25.03.38q.05.4.55.65h-1.25v3.91h-1.41c-.15-.15-.31-.31-.47-.47v-.31q1.04-.04,1.56.31c.01-.59.02-1.17.03-1.76,0-.17,0-.33.01-.5,0-.16,0-.32,0-.49,0-.15,0-.29,0-.45-.06-.47-.21-.68-.52-1.03h1.25v-.94Z"/>
    <path class="cls-34" d="M56.33,75.86h1.88c.1.21.21.41.31.63h-1.25v.31q.16-.01.32-.03,1.14-.06,1.66.37c.23.5.23.71.05,1.22l-.47-.31v-.31h-.31v-.78h-2.19v-1.09Z"/>
    <path class="cls-36" d="M51.01,73.82q.97-.06,1.48.18.24.29.3.77t-.37.77c-.47.04-.93.01-1.41,0v-1.72Z"/>
    <path d="M66.85,106.01c.4,0,.8.01,1.21.02v1.56h-1.72q-.02-1.08,0-1.41.16-.16.51-.17Z"/>
    <path class="cls-88" d="M81.97,73.98c.25.49.47.99.68,1.5.07.16.14.33.21.5.13.31.25.63.37.95q.37.98,1.08,1.74-1.39.12-2.05-.34c-.31-.47-.37-.67-.29-1.22.1.15.21.31.31.47q.4.11.78.16c-.03-.09-.06-.17-.1-.26-.15-.39-.29-.79-.44-1.18-.05-.14-.1-.27-.15-.41-.05-.13-.1-.26-.15-.4-.05-.12-.09-.24-.14-.37-.11-.32-.21-.63-.27-.97l.16-.16Z"/>
    <path class="cls-88" d="M69.77,73.98c.25.49.47.99.68,1.5.07.16.14.33.21.5.13.31.25.63.37.95q.37.98,1.08,1.74-1.39.12-2.05-.34c-.31-.47-.37-.67-.29-1.22.1.15.21.31.31.47q.4.11.78.16c-.03-.09-.06-.17-.1-.26-.15-.39-.29-.79-.44-1.18-.05-.14-.1-.27-.15-.41-.05-.13-.1-.26-.15-.4-.05-.12-.09-.24-.14-.37-.11-.32-.21-.63-.27-.97l.16-.16Z"/>
    <path class="cls-18" d="M69.62,104.31h1.72c-.05.52-.1,1.03-.16,1.56h-1.56v-1.56Z"/>
    <path class="cls-27" d="M84.78,72.89h1.41c-.1.1-.21.21-.31.31h-.78v4.53h2.81v-.78h.16v.94q-1.62.08-3.28.16v-5.16Z"/>
    <path class="cls-44" d="M68.05,109.15h1.56v1.56h-1.56v-1.56Z"/>
    <path class="cls-49" d="M69.62,107.59h1.56v1.56h-1.56v-1.56Z"/>
    <path d="M68.05,107.59h1.56v1.56h-1.56v-1.56Z"/>
    <path class="cls-7" d="M72.9,106.03h1.56v1.56h-1.56v-1.56Z"/>
    <path class="cls-26" d="M69.62,106.03h1.56v1.56h-1.56v-1.56Z"/>
    <path class="cls-73" d="M68.05,106.03h1.56v1.56h-1.56v-1.56Z"/>
    <path class="cls-1" d="M69.62,102.74h1.56v1.56h-1.56v-1.56Z"/>
    <path class="cls-123" d="M68.05,102.74h1.56v1.56h-1.56v-1.56Z"/>
    <path class="cls-105" d="M35.38,69.6h1.56v1.56h-1.56v-1.56Z"/>
    <path class="cls-38" d="M32.1,67.88h1.56v1.56h-1.56v-1.56Z"/>
    <path class="cls-127" d="M32.1,66.32h1.56v1.56h-1.56v-1.56Z"/>
    <path class="cls-127" d="M72.9,107.59h1.56q.02,1.21-.16,1.56h-1.41v-1.56Z"/>
    <path class="cls-110" d="M92.75,105.56h1.41v1.56h-1.56q-.02-1.04.16-1.56Z"/>
    <path class="cls-126" d="M96.97,74.76c1.02.4,1.75.94,2.34,1.88.1.55.11.77-.2,1.24q-.27.17-.62.12c-.09-.04-.19-.07-.28-.11q0-.47.03-.83c.03-.42.03-.79-.03-1.2q-.41-.41-.94-.63c-.12-.06-.25-.13-.37-.2-.08-.04-.17-.08-.25-.12l.31-.16Z"/>
    <path class="cls-32" d="M49.92,72.89h2.5c-.05.1-.1.21-.16.31h-2.03c0,.32,0,.65.01.98,0,.31,0,.63,0,.94,0,.22,0,.44,0,.65,0,.31,0,.63,0,.94,0,.19,0,.38,0,.57q-.04.45-.35.76v-5.16Z"/>
    <path class="cls-109" d="M66.49,107.59h1.41v1.56h-1.41v-1.56Z"/>
    <path class="cls-60" d="M64.77,106.03h1.56v1.41h-1.56v-1.41Z"/>
    <path class="cls-18" d="M71.34,106.03h1.41v1.56h-1.41v-1.56Z"/>
    <path class="cls-108" d="M68.05,104.46h1.56v1.41h-1.56v-1.41Z"/>
    <path class="cls-103" d="M80.71,73.98h.31c.11.28.21.55.31.83.06.15.12.31.18.47q.14.42.14.89h-1.56c.1-.79.33-1.45.63-2.19Z"/>
    <path class="cls-103" d="M68.52,73.98h.31c.11.28.21.55.31.83.06.15.12.31.18.47q.14.42.14.89h-1.56c.1-.79.33-1.45.63-2.19Z"/>
    <path class="cls-14" d="M95.25,75.23q1.08.46,2.19.94c-.05.26-.1.52-.16.78-.28,0-.56,0-.84,0-.16,0-.31,0-.47,0q-.41-.02-.72-.17c.05.31.1.62.16.94h-.47v-1.41c.14.05.28.1.43.16q.52.19,1.13.16c-.09-.08-.18-.15-.27-.23-.12-.1-.23-.2-.35-.3q-.17-.15-.35-.3c-.09-.09-.18-.18-.27-.27v-.31Z"/>
    <path class="cls-15" d="M92.91,75.54c.15.44.17.65.14,1.1l-.02.36c0,.12-.02.25-.03.37,0,.12-.02.25-.02.38-.02.31-.04.61-.06.92q-.39-.24-.78-.63-.09-.53-.08-1.11c0-.19,0-.39,0-.59.02-.16.05-.32.07-.49q.47-.31.78-.31Z"/>
    <path class="cls-56" d="M48.2,74.14l.63.63c-.05.05-.1.1-.16.16.05.11.1.22.16.33.25.72.24,1.2-.06,1.91q-.25.42-.57.58c-.34-.54-.28-.79-.16-1.41,0-.32,0-.64,0-.97q-.02-.87.16-1.22Z"/>
    <path class="cls-71" d="M84.94,77.89h2.5v.63h1.41v.16c-.56.01-1.13.02-1.69.03q-.24,0-.49.01t-.47,0c-.14,0-.28,0-.43,0q-.37-.05-.65-.27-.18-.25-.18-.56Z"/>
    <path class="cls-46" d="M96.03,113.84h1.41v1.41h-1.41v-1.41Z"/>
    <path class="cls-46" d="M94.47,112.28h1.41v1.41h-1.41v-1.41Z"/>
    <path class="cls-37" d="M66.49,110.87h1.41v1.41h-1.41v-1.41Z"/>
    <path class="cls-29" d="M69.77,110.87h1.41v1.41h-1.41v-1.41Z"/>
    <path class="cls-46" d="M92.75,110.56h1.41v1.41h-1.41v-1.41Z"/>
    <path class="cls-26" d="M96.03,110.56h1.41v1.41h-1.41v-1.41Z"/>
    <path class="cls-85" d="M71.34,109.31h1.41v1.41h-1.41v-1.41Z"/>
    <path d="M71.34,107.75h1.41v1.41h-1.41v-1.41Z"/>
    <path class="cls-104" d="M97.6,107.43h1.41v1.41h-1.41v-1.41Z"/>
    <path d="M92.75,107.28h1.41v1.41h-1.41v-1.41Z"/>
    <path d="M71.34,104.46h1.41v1.41h-1.41v-1.41Z"/>
    <path class="cls-18" d="M66.49,104.46h1.41v1.41h-1.41v-1.41Z"/>
    <path class="cls-1" d="M71.34,101.18h1.41v1.41h-1.41v-1.41Z"/>
    <path class="cls-58" d="M106.35,83.05h1.41v1.41h-1.41v-1.41Z"/>
    <path class="cls-110" d="M44.45,77.58c.11.03.22.05.33.08.49.09.94.09,1.44.09.17,0,.33,0,.51,0q.19,0,.38,0c.09.32.16.6.16.94q-1.65.13-2.37-.37c-.15-.14-.29-.27-.44-.41v-.31Z"/>
    <path class="cls-67" d="M79.78,76.79h2.19v.94h-1.56l-.16.31c-.05-.15-.1-.31-.16-.47-.1-.05-.21-.1-.31-.16v-.63Z"/>
    <path class="cls-67" d="M67.58,76.79h2.19v.94h-1.56l-.16.31c-.05-.15-.1-.31-.16-.47-.1-.05-.21-.1-.31-.16v-.63Z"/>
    <path class="cls-74" d="M30.54,69.6h1.41v1.41h-1.41v-1.41Z"/>
    <path d="M33.82,69.6h1.41v1.41h-1.41v-1.41Z"/>
    <path class="cls-104" d="M37.1,68.04h1.41v1.41h-1.41v-1.41Z"/>
    <path class="cls-106" d="M28.97,68.04h1.41v1.41h-1.41v-1.41Z"/>
    <path class="cls-99" d="M35.38,66.48h1.41v1.41h-1.41v-1.41Z"/>
    <path d="M30.54,66.32h1.41v1.41h-1.41v-1.41Z"/>
    <path class="cls-109" d="M33.82,64.76h1.41v1.41h-1.41v-1.41Z"/>
    <path class="cls-18" d="M30.54,64.76h1.41v1.41h-1.41v-1.41Z"/>
    <path class="cls-117" d="M32.1,63.19h1.41v1.41h-1.41v-1.41Z"/>
    <path class="cls-16" d="M86.34,74.14q.31.31.34.86c0,.22,0,.43-.01.65,0,.11,0,.22,0,.33,0,.27,0,.55-.02.82-.26.05-.52.1-.78.16v-2.66c.15-.05.31-.1.47-.16Z"/>
    <path class="cls-119" d="M46.48,73.98q.39.21.63.47v.31q-.29.02-.59.05c-.55.07-.88.18-1.29.58-.1-.21-.21-.41-.31-.63h-.31c.4-.88.95-.89,1.88-.78Z"/>
    <path class="cls-129" d="M97.75,73.98q.39.22.63.47v.31c-.33.03-.66.06-1,.09-.18.02-.37.03-.56.05q-.48.02-.79-.14.06-.38.16-.78c.51-.25,1.03-.12,1.56,0Z"/>
    <path class="cls-33" d="M103.69,73.04q.39.23.78.63c.07.44.04.8,0,1.25h-1.25v3.75h-.16v-3.91c.26-.05.52-.1.78-.16-.05-.05-.1-.1-.16-.16-.01-.24-.01-.48,0-.71,0-.13,0-.26,0-.39,0-.1,0-.2,0-.3Z"/>
    <path class="cls-83" d="M64.93,109.31h1.25v1.41h-1.25v-1.41Z"/>
    <path class="cls-71" d="M96.03,105.71h1.25v1.41h-1.25v-1.41Z"/>
    <path class="cls-49" d="M94.31,104.15h1.41v1.25h-1.41v-1.25Z"/>
    <path class="cls-66" d="M69.77,99.62h1.25v1.41h-1.25v-1.41Z"/>
    <path class="cls-63" d="M71.34,98.05h1.41v1.25h-1.41v-1.25Z"/>
    <path class="cls-13" d="M71.18,104.46h.16v1.41h1.41v-1.41h.16v3.13h-.16v-1.56h-1.41v1.56h-.16v-1.56h-3.13v-.16h3.13v-1.41Z"/>
    <path class="cls-85" d="M58.52,73.04h.16c.02.17.03.34.05.52q.06.62.58,1.05h-2.03v.31l-.47-.16c-.1-.26-.21-.52-.31-.78h2.03v-.94Z"/>
    <path d="M94.47,115.56h1.25v1.25h-1.25v-1.25Z"/>
    <path class="cls-67" d="M66.65,114.15h1.25v1.25h-1.25v-1.25Z"/>
    <path class="cls-99" d="M64.93,112.59h1.25v1.25h-1.25v-1.25Z"/>
    <path class="cls-127" d="M68.21,112.59h1.25v1.25h-1.25v-1.25Z"/>
    <path d="M94.47,109h1.25v1.25h-1.25v-1.25Z"/>
    <path class="cls-90" d="M63.36,107.75h1.25v1.25h-1.25v-1.25Z"/>
    <path d="M73.06,102.9h1.25v1.25h-1.25v-1.25Z"/>
    <path class="cls-108" d="M74.62,101.34h1.25v1.25h-1.25v-1.25Z"/>
    <path class="cls-21" d="M74.62,98.05h1.25v1.25h-1.25v-1.25Z"/>
    <path class="cls-117" d="M108.07,78.2h1.25v1.25h-1.25v-1.25Z"/>
    <path d="M32.26,71.32h1.25v1.25h-1.25v-1.25Z"/>
    <path class="cls-31" d="M81.81,73.51q.47.16.74.69c.09.23.19.46.28.69.05.12.1.24.15.36.36.91.65,1.83.87,2.78h-.31c-.2-.52-.4-1.04-.6-1.56-.06-.15-.11-.29-.17-.44-.32-.84-.64-1.68-.95-2.53Z"/>
    <path class="cls-31" d="M69.62,73.51q.47.16.74.69c.09.23.19.46.28.69.05.12.1.24.15.36.36.91.65,1.83.87,2.78h-.31c-.2-.52-.4-1.04-.6-1.56-.06-.15-.11-.29-.17-.44-.32-.84-.64-1.68-.95-2.53Z"/>
    <path class="cls-27" d="M82.59,73.98c.37.37.47.66.65,1.15.06.17.12.33.19.5.06.17.13.35.2.53q.1.26.2.53.48,1.3.48,1.83-.3-.1-.63-.31-.03-.19-.06-.39c-.15-.87-.5-1.66-.82-2.48-.05-.13-.1-.26-.15-.39q-.07-.18-.14-.35t.08-.61Z"/>
    <path class="cls-27" d="M70.4,73.98c.37.37.47.66.65,1.15.06.17.12.33.19.5.06.17.13.35.2.53q.1.26.2.53.48,1.3.48,1.83-.3-.1-.63-.31-.03-.19-.06-.39c-.15-.87-.5-1.66-.82-2.48-.05-.13-.1-.26-.15-.39q-.07-.18-.14-.35t.08-.61Z"/>
    <path class="cls-105" d="M55.39,77.89h1.41c.05.1.1.21.16.31h.31v.31h2.03v.16c-.56.01-1.13.02-1.69.03q-.24,0-.49.01t-.47,0c-.14,0-.28,0-.43,0q-.37-.05-.65-.27-.18-.25-.18-.56Z"/>
    <path class="cls-112" d="M30.38,64.6h1.72q.02,1.21,0,1.56-.16.16-.48.17l-1.08-.02v1.56h-.16v-1.56h-1.56v-.16h1.56v-1.56ZM30.54,64.76v1.41h1.41v-1.41h-1.41Z"/>
    <path class="cls-94" d="M102.44,74.92c.31.26.46.39.52.79,0,.12,0,.24,0,.37,0,.13,0,.26,0,.4,0,.14,0,.28-.01.42q0,.21,0,.42c0,.34-.01.69-.02,1.03-.15-.1-.31-.21-.47-.31q-.05-.32-.05-.71c0-.14,0-.28,0-.42,0-.15,0-.29.01-.44,0-.15,0-.3,0-.45,0-.37.01-.73.02-1.1Z"/>
    <path class="cls-48" d="M58.21,74.92c.39.18.63.32.94.63q.02.57,0,1.09h-1.88v-.16q.54-.08,1.09-.16c-.05-.1-.1-.21-.16-.31,0-.36,0-.73,0-1.09Z"/>
    <path class="cls-79" d="M63.36,114.31h1.25v1.09h-1.25v-1.09Z"/>
    <path class="cls-35" d="M63.36,111.03h1.25v1.09h-1.25v-1.09Z"/>
    <path class="cls-34" d="M115.89,103.84h1.25v1.09h-1.25v-1.09Z"/>
    <path class="cls-30" d="M112.45,103.84h1.25v1.09h-1.25v-1.09Z"/>
    <path class="cls-30" d="M101.97,103.84h1.25v1.09h-1.25v-1.09Z"/>
    <path class="cls-122" d="M110.73,102.12h1.25v1.09h-1.25v-1.09Z"/>
    <path class="cls-57" d="M107.29,102.12h1.25v1.09h-1.25v-1.09Z"/>
    <path class="cls-57" d="M100.25,102.12h1.25v1.09h-1.25v-1.09Z"/>
    <path class="cls-62" d="M109.01,100.4h1.25v1.09h-1.25v-1.09Z"/>
    <path class="cls-62" d="M98.53,100.4h1.25v1.09h-1.25v-1.09Z"/>
    <path class="cls-39" d="M73.06,99.77h1.25v1.09h-1.25v-1.09Z"/>
    <path class="cls-125" d="M29.13,71.32h1.09v1.25h-1.09v-1.25Z"/>
    <path class="cls-109" d="M38.82,66.48h1.09v1.25h-1.09v-1.25Z"/>
    <path class="cls-109" d="M37.1,64.91h1.25v1.09h-1.25v-1.09Z"/>
    <path class="cls-2" d="M76.96,75.07c.3.25.45.39.52.78q0,.17,0,.35c0,.13,0,.25,0,.38,0,.13,0,.26-.01.39q0,.2,0,.4c0,.33-.01.65-.02.98-.15-.1-.31-.21-.47-.31q-.05-.31-.05-.68c0-.13,0-.27,0-.4,0-.14,0-.28.01-.42,0-.14,0-.28,0-.42,0-.35.01-.69.02-1.04Z"/>
    <path class="cls-2" d="M64.77,75.07c.3.25.45.39.52.78q0,.17,0,.35c0,.13,0,.25,0,.38,0,.13,0,.26-.01.39q0,.2,0,.4c0,.33-.01.65-.02.98-.15-.1-.31-.21-.47-.31q-.05-.31-.05-.68c0-.13,0-.27,0-.4,0-.14,0-.28.01-.42,0-.14,0-.28,0-.42,0-.35.01-.69.02-1.04Z"/>
    <path class="cls-113" d="M44.45,74.61c.45.09.6.13.94.47-.05.08-.1.16-.16.24-.21.5-.18.94-.16,1.48-.54-.45-.77-.64-.84-1.36q.06-.52.21-.83Z"/>
    <path class="cls-41" d="M61.33,107.75v1.25h-1.25c.05-.49.09-.72.45-1.06q.33-.19.8-.19Z"/>
    <path class="cls-57" d="M93.69,73.04l.63.16q.12.27.16.63-.26.35-.63.63h-.63q-.15.08-.31.16c.18-.61.37-1.07.78-1.56Z"/>
    <path class="cls-96" d="M92.82,72.83c.4,0,.79.02,1.18.05q-.15.08-.31.16c-.05.1-.1.21-.16.31q-.21-.02-.43-.05-.54,0-.88.44c-.08.13-.17.26-.25.39-.1-.05-.21-.1-.31-.16v.47l-.47-.16q-.19-.4-.31-.78c.36.05.72.1,1.09.16.05-.13.09-.26.14-.39q.33-.39.71-.44Z"/>
    <path class="cls-82" d="M61.8,115.87h1.09v1.09h-1.09v-1.09Z"/>
    <path class="cls-128" d="M61.8,112.75h1.09v1.09h-1.09v-1.09Z"/>
    <path class="cls-41" d="M60.24,111.03h1.09v1.09h-1.09v-1.09Z"/>
    <path class="cls-8" d="M56.95,111.03h1.09v1.09h-1.09v-1.09Z"/>
    <path class="cls-85" d="M61.8,109.46h1.09v1.09h-1.09v-1.09Z"/>
    <path class="cls-71" d="M58.52,109.46h1.09v1.09h-1.09v-1.09Z"/>
    <path class="cls-84" d="M77.74,104.31c.46.05.93.1,1.41.16v.16h-1.25v1.09h.31q-.27.76-.63.94v-.63h-.31c.05-.23.1-.46.15-.68.03-.13.05-.25.08-.38q.08-.34.24-.65Z"/>
    <path class="cls-128" d="M119.48,103.84h1.09v1.09h-1.09v-1.09Z"/>
    <path class="cls-104" d="M109.01,103.84h1.09v1.09h-1.09v-1.09Z"/>
    <path class="cls-109" d="M105.57,103.84h1.09v1.09h-1.09v-1.09Z"/>
    <path class="cls-81" d="M117.76,102.12h1.09v1.09h-1.09v-1.09Z"/>
    <path class="cls-117" d="M114.32,102.12h1.09v1.09h-1.09v-1.09Z"/>
    <path class="cls-117" d="M103.85,102.12h1.09v1.09h-1.09v-1.09Z"/>
    <path class="cls-73" d="M116.04,100.4h1.09v1.09h-1.09v-1.09Z"/>
    <path class="cls-42" d="M112.6,100.4h1.09v1.09h-1.09v-1.09Z"/>
    <path class="cls-128" d="M105.57,100.4h1.09v1.09h-1.09v-1.09Z"/>
    <path class="cls-73" d="M102.13,100.4h1.09v1.09h-1.09v-1.09Z"/>
    <path class="cls-26" d="M73.06,96.49h1.09v1.09h-1.09v-1.09Z"/>
    <path class="cls-105" d="M83.22,77.58c.18.15.37.31.55.46.1.09.2.17.31.26q.12.11.24.22v.16c-.53.05-1.04.07-1.56,0q-.41-.39-.63-.78h1.09v-.31Z"/>
    <path class="cls-105" d="M71.02,77.58c.18.15.37.31.55.46.1.09.2.17.31.26q.12.11.24.22v.16c-.53.05-1.04.07-1.56,0q-.41-.39-.63-.78h1.09v-.31Z"/>
    <path class="cls-122" d="M108.23,74.92h1.09v1.09h-1.09v-1.09Z"/>
    <path class="cls-4" d="M30.69,73.04h1.09v1.09h-1.09v-1.09Z"/>
    <path d="M27.41,69.76h1.09v1.09h-1.09v-1.09Z"/>
    <path class="cls-85" d="M35.54,63.35h1.09v1.09h-1.09v-1.09Z"/>
    <path class="cls-18" d="M33.98,61.63h1.09v1.09h-1.09v-1.09Z"/>
    <path class="cls-89" d="M60.24,114.31h1.09c0,.31,0,.63,0,.94q-.16.16-.64.17-.23,0-.46,0v-1.09Z"/>
    <path class="cls-64" d="M114.17,105.56h1.25v.94h-1.25v-.94Z"/>
    <path class="cls-64" d="M110.73,105.56h1.25v.94h-1.25v-.94Z"/>
    <path class="cls-64" d="M103.69,105.56h1.25v.94h-1.25v-.94Z"/>
    <path class="cls-37" d="M65.08,115.87h1.09v.94c-.36.05-.72.1-1.09.16v-1.09Z"/>
    <path class="cls-15" d="M48.36,74.61q.61.27.78.63c.1.92.17,1.77-.39,2.54-.13.14-.26.28-.39.43-.05-.1-.09-.2-.14-.3q-.15-.35-.49-.48h.78c.29-.61.33-1.02.25-1.69-.02-.15-.03-.31-.05-.46-.01-.12-.03-.23-.05-.35h-.31v-.31Z"/>
    <path class="cls-81" d="M108.07,81.48h1.09c-.1.41-.21.83-.31,1.25h-.78v-1.25Z"/>
    <path class="cls-27" d="M51.01,76.33q.75.6.83,1.11c0,.31-.03.61-.05.92-.08-.05-.17-.1-.25-.15-.43-.19-.84-.26-1.31-.32v-.16h.78v-1.41Z"/>
    <path class="cls-72" d="M99.79,73.04h.16v.94h1.25v.94q-.35.05-.78,0c-.51-.46-.62-.69-.66-1.38.01-.16.03-.33.04-.5Z"/>
    <path class="cls-23" d="M71.34,110.72h2.34q-.31.94-.64,1.15-.15.05-.29.1v-1.09h-1.41v-.16Z"/>
    <path class="cls-50" d="M69.46,101.18h.16v1.56h-2.5q.47-.78.94-1.09v.94h1.41v-1.41Z"/>
    <path class="cls-109" d="M109.79,76.64h1.09q-.14.92-.31,1.09c-.26,0-.52,0-.78,0v-1.09Z"/>
    <path class="cls-119" d="M98.22,77.11v.47c.05.1.1.21.16.31h.47q-.13.3-.31.63c-.15.05-.31.1-.47.16-.1-.1-.21-.21-.31-.31-.15-.05-.31-.1-.47-.16-.05-.15-.1-.31-.16-.47.15-.07.3-.15.46-.22q.45-.2.64-.4Z"/>
    <path class="cls-123" d="M56.49,75.86h1.72c.1.21.21.41.31.63-.25,0-.5,0-.75,0q-.21,0-.42,0-.39-.02-.86-.17v-.47Z"/>
    <path class="cls-98" d="M94,74.45l-.94,1.41q-.16-.31-.16-.78l-.47.16c.14-.44.23-.72.61-1.01q.33-.09.96.22Z"/>
    <path class="cls-17" d="M98.38,73.36q.31.16.63.47c.06.43.03.81,0,1.25-.26-.05-.52-.1-.78-.16,0-.23,0-.46,0-.69,0-.13,0-.26,0-.39q.02-.32.17-.48Z"/>
    <path class="cls-104" d="M117.76,105.56h1.09v.94h-1.09v-.94Z"/>
    <path class="cls-47" d="M107.29,105.56h1.09v.94h-1.09v-.94Z"/>
    <path class="cls-57" d="M96.19,102.59h.94v1.09h-.94v-1.09Z"/>
    <path class="cls-115" d="M94.47,101.02h1.09v.94h-1.09v-.94Z"/>
    <path class="cls-121" d="M76.34,96.65h1.09v.94h-1.09v-.94Z"/>
    <path class="cls-31" d="M74.77,94.93h.94v1.09h-.94v-1.09Z"/>
    <path class="cls-49" d="M78.37,77.58l.16.31c.17-.02.34-.03.52-.05.19.02.38.03.58.05q.3.39.47.78-.83.05-1.25,0-.31-.28-.47-.63v-.47Z"/>
    <path class="cls-49" d="M66.18,77.58l.16.31c.17-.02.34-.03.52-.05.19.02.38.03.58.05q.3.39.47.78-.83.05-1.25,0-.31-.28-.47-.63v-.47Z"/>
    <path class="cls-57" d="M101.19,82.42h1.72v.47c-.93.05-1.86.1-2.81.16v-.16h1.09v-.47Z"/>
    <path class="cls-6" d="M74.62,76.01l.31.31c-.05.05-.1.1-.16.16-.04.37-.06.74-.09,1.1-.01.2-.03.4-.04.61,0,.16-.02.31-.03.47-.05-.1-.1-.21-.16-.31q-.32-.18-.63-.31v-1.09l.47.47q.03-.3.07-.62.07-.62.24-.79Z"/>
    <path class="cls-6" d="M62.43,76.01l.31.31c-.05.05-.1.1-.16.16-.04.37-.06.74-.09,1.1-.01.2-.03.4-.04.61,0,.16-.02.31-.03.47-.05-.1-.1-.21-.16-.31q-.32-.18-.63-.31v-1.09l.47.47q.03-.3.07-.62.07-.62.24-.79Z"/>
    <path class="cls-58" d="M72.74,77.89q.99-.06,1.48.21.24.25.24.57-1.17.06-1.56-.21-.16-.25-.16-.57Z"/>
    <path class="cls-58" d="M60.55,77.89q.99-.06,1.48.21.24.25.24.57-1.17.06-1.56-.21-.16-.25-.16-.57Z"/>
    <path class="cls-18" d="M91.03,77.89q.51-.05,1.09,0,.38.39.63.78-1.17.06-1.56-.21-.16-.25-.16-.57Z"/>
    <path class="cls-49" d="M75.87,77.89q.51-.05,1.09,0,.38.39.63.78-1.17.06-1.56-.21-.16-.25-.16-.57Z"/>
    <path class="cls-49" d="M63.68,77.89q.51-.05,1.09,0,.38.39.63.78-1.17.06-1.56-.21-.16-.25-.16-.57Z"/>
    <path class="cls-18" d="M50.08,77.73c.23.04.46.08.69.13q.19.04.39.07t.32.11c.05.15.1.31.16.47l.31.16q-1.15.08-1.64-.29-.23-.33-.23-.64Z"/>
    <path class="cls-124" d="M88.22,77.11q.61.14.78.31c.02.42,0,.83,0,1.25q-.47-.16-.78-.63-.02-.5,0-.94Z"/>
    <path class="cls-107" d="M90.41,73.04q.76.27.94.63l-.31.16.63.63v-.47h.31c-.08.34-.16.63-.31.94-.57-.19-.61-.33-.89-.85-.07-.13-.14-.25-.21-.38q-.15-.33-.15-.65Z"/>
    <path class="cls-110" d="M63.05,106.34v1.09h-1.41q1.07-1.09,1.41-1.09Z"/>
    <path class="cls-119" d="M55.39,112.75h.94v.94h-.94v-.94Z"/>
    <path class="cls-58" d="M58.67,112.75h.94v.94h-.94v-.94Z"/>
    <path class="cls-83" d="M97.91,104.31h.94v.94h-.94v-.94Z"/>
    <path class="cls-100" d="M79.62,99.93h.94v.94h-.94v-.94Z"/>
    <path class="cls-54" d="M78.06,94.93h.94v.94h-.94v-.94Z"/>
    <path class="cls-74" d="M74.77,91.8h.94v.94h-.94v-.94Z"/>
    <path class="cls-57" d="M107.13,79.76h.63v1.41h-.63v-1.41Z"/>
    <path class="cls-5" d="M98.69,76.33q.31.31.33.88c0,.17-.01.35-.02.53q-.31.15-.63.31c-.1-.15-.21-.31-.31-.47l.63-1.25Z"/>
    <path class="cls-100" d="M29.13,74.76h.94v.94h-.94v-.94Z"/>
    <path class="cls-82" d="M85.87,73.04q.29.05.63.16c.1.15.21.31.31.47q-.31.46-.63.94-.31-.31-.34-.62c.01-.32.02-.63.03-.95Z"/>
    <path class="cls-115" d="M109.95,73.36h.94v.94h-.94v-.94Z"/>
    <path class="cls-104" d="M108.23,71.79h.94v.94h-.94v-.94Z"/>
    <path class="cls-19" d="M25.85,71.48h.94v.94h-.94v-.94Z"/>
    <path class="cls-104" d="M40.54,65.07h.94v.94h-.94v-.94Z"/>
    <path class="cls-128" d="M38.98,63.35h.94v.94h-.94v-.94Z"/>
    <path class="cls-58" d="M37.26,61.79h.94v.94h-.94v-.94Z"/>
    <path class="cls-84" d="M54.39,111.17h.38v.95h-.94c0-.26,0-.52,0-.78q.16-.16.56-.17Z"/>
    <path class="cls-18" d="M117.76,98.99h1.09v.78h-1.09v-.78Z"/>
    <path class="cls-114" d="M114.32,98.99h1.09v.78h-1.09v-.78Z"/>
    <path class="cls-49" d="M110.88,98.99h1.09v.78h-1.09v-.78Z"/>
    <path class="cls-127" d="M103.85,98.99h1.09v.78h-1.09v-.78Z"/>
    <path class="cls-114" d="M100.41,98.99h1.09v.78h-1.09v-.78Z"/>
    <path class="cls-72" d="M95.25,75.23c.57.26,1.13.52,1.72.78q-.15.23-.31.47c-.66-.07-.98-.45-1.41-.94v-.31Z"/>
    <path class="cls-87" d="M74.31,73.51c.68.23,1.09.78,1.41,1.41v.63c-.15.05-.31.1-.47.16,0-.11-.02-.21-.03-.32-.15-.54-.4-.87-.74-1.31q-.17-.24-.17-.56Z"/>
    <path class="cls-87" d="M62.11,73.51c.68.23,1.09.78,1.41,1.41v.63c-.15.05-.31.1-.47.16,0-.11-.02-.21-.03-.32-.15-.54-.4-.87-.74-1.31q-.17-.24-.17-.56Z"/>
    <path class="cls-97" d="M53.83,74.29q.23.17.47.47.1.96-.23,1.4c-.08.05-.15.11-.23.17-.2-.72-.11-1.3,0-2.03Z"/>
    <path class="cls-85" d="M45.39,73.98q.99-.06,1.48.21.24.25.24.57c-.63-.07-1.17-.14-1.72-.47v-.31Z"/>
    <path class="cls-69" d="M58.67,73.04q.39.25.78.63.05.51,0,.94-.39-.17-.78-.47-.05-.58,0-1.09Z"/>
    <path class="cls-70" d="M48.51,74.92c.37.37.37.52.41,1.04.01.13.02.26.04.39,0,.1.02.2.02.3h-.63c.05-.57.1-1.13.16-1.72Z"/>
    <path class="cls-83" d="M58.52,73.04h.16c.02.17.03.34.05.52.11.59.16.68.58,1.05-.23.01-.46.02-.68.03-.13,0-.25.01-.38.02-.11-.02-.22-.03-.34-.05-.1-.15-.21-.31-.31-.47h.94v-1.09Z"/>
    <path class="cls-28" d="M52.26,73.04c.64.03.9.13,1.4.55.41.54.36,1,.27,1.65q-.11.31-.58.62c.03-.08.05-.16.08-.24.11-.52.13-.94.08-1.48-.38-.47-.75-.76-1.25-1.09Z"/>
    <path class="cls-99" d="M88.06,77.11h.16c.1.46.21.93.31,1.41h-1.09c-.05-.15-.1-.31-.16-.47.26-.05.52-.1.78-.16v-.78Z"/>
    <path class="cls-58" d="M101.19,77.89q1.04-.04,1.56.31v.31c-.46-.05-.93-.1-1.41-.16-.05-.15-.1-.31-.16-.47Z"/>
    <path class="cls-124" d="M58.52,76.95q.29.05.63.16.31.47.25.89c-.03.12-.06.24-.1.36-.15-.1-.31-.21-.47-.31v-.31h-.31v-.78Z"/>
    <path class="cls-42" d="M60.39,117.59h.78v.94h-.78v-.94Z"/>
    <path class="cls-47" d="M58.67,116.03h.94v.78h-.94v-.78Z"/>
    <path class="cls-73" d="M99.47,106.03h.94v.78h-.94v-.78Z"/>
    <path class="cls-41" d="M119.48,100.4l.63.16c.05.31.1.62.16.94h-.78v-1.09Z"/>
    <path class="cls-114" d="M107.44,98.99h.94v.78h-.94v-.78Z"/>
    <path class="cls-114" d="M96.97,98.99h.94v.78h-.94v-.78Z"/>
    <path class="cls-100" d="M76.49,93.36h.78v.94h-.78v-.94Z"/>
    <path class="cls-72" d="M104.63,82.42h1.56v.47h-1.56v-.47Z"/>
    <path class="cls-40" d="M29.29,78.04h.78v.94h-.78v-.94Z"/>
    <path class="cls-38" d="M30.85,76.48h.94v.78h-.94v-.78Z"/>
    <path class="cls-3" d="M26,74.76h.78v.94h-.78v-.94Z"/>
    <path class="cls-116" d="M27.57,73.2h.94v.78h-.94v-.78Z"/>
    <path class="cls-99" d="M121.2,105.56h.63c.1.31.21.62.31.94h-.94v-.94Z"/>
    <path class="cls-19" d="M92.13,76.64c.15.05.31.1.47.16v1.56c-.15-.1-.31-.21-.47-.31q-.05-.34-.03-.72c0-.13,0-.26.01-.39q0-.15.02-.3Z"/>
    <path class="cls-68" d="M86.19,75.23c.15.05.31.1.47.16v1.41h-.47v-1.56Z"/>
    <path class="cls-109" d="M73.68,74.76q.87.8.94,1.41l-.31.16c-.05-.1-.1-.21-.16-.31-.15-.05-.31-.1-.47-.16v-1.09Z"/>
    <path class="cls-109" d="M61.49,74.76q.87.8.94,1.41l-.31.16c-.05-.1-.1-.21-.16-.31-.15-.05-.31-.1-.47-.16v-1.09Z"/>
    <path class="cls-34" d="M75.71,73.04h.16v3.13c-.15-.1-.31-.21-.47-.31v-.31h.31c-.1-.36-.21-.72-.31-1.09h.16c.05-.46.1-.93.16-1.41Z"/>
    <path class="cls-34" d="M63.52,73.04h.16v3.13c-.15-.1-.31-.21-.47-.31v-.31h.31c-.1-.36-.21-.72-.31-1.09h.16c.05-.46.1-.93.16-1.41Z"/>
    <path class="cls-56" d="M97.28,73.82l-.31.47c-.15-.05-.31-.1-.47-.16v.31c.1.05.21.1.31.16-.15.1-.31.21-.47.31-.1-.05-.21-.1-.31-.16q.06-.38.16-.78c.38-.19.67-.17,1.09-.16Z"/>
    <path class="cls-81" d="M42.26,66.63h.78v.78c-.26.05-.52.1-.78.16v-.94Z"/>
    <path class="cls-13" d="M83.53,88.67h.16v1.72h-.63c.1-.59.27-1.15.47-1.72Z"/>
    <path class="cls-110" d="M81.81,76.95l.16.63q-.9.02-1.25-.16v-.31c.38-.19.67-.17,1.09-.16Z"/>
    <path class="cls-110" d="M69.62,76.95l.16.63q-.9.02-1.25-.16v-.31c.38-.19.67-.17,1.09-.16Z"/>
    <path class="cls-120" d="M95.25,73.36h.31c-.05.15-.1.31-.16.47-.01.24-.01.49,0,.73,0,.13,0,.25,0,.38,0,.1,0,.19,0,.29h-.47c0-.22-.01-.45-.02-.67,0-.13,0-.25-.01-.38q.03-.35.34-.82Z"/>
    <path class="cls-86" d="M79.62,77.11l.16.31c.15.05.31.1.47.16q.13.29.16.63l-.31.47c-.37-.4-.47-.58-.5-1.13,0-.14.02-.28.03-.43Z"/>
    <path class="cls-86" d="M67.43,77.11l.16.31c.15.05.31.1.47.16q.13.29.16.63l-.31.47c-.37-.4-.47-.58-.5-1.13,0-.14.02-.28.03-.43Z"/>
    <path class="cls-95" d="M74.77,76.33c.41.4.77.77,1.09,1.25q.4.11.78.16v.16c-.31.05-.62.1-.94.16-.16-.23-.31-.46-.47-.68-.09-.13-.17-.25-.26-.38q-.21-.34-.21-.65Z"/>
    <path class="cls-95" d="M62.58,76.33c.41.4.77.77,1.09,1.25q.4.11.78.16v.16c-.31.05-.62.1-.94.16-.16-.23-.31-.46-.47-.68-.09-.13-.17-.25-.26-.38q-.21-.34-.21-.65Z"/>
    <path class="cls-15" d="M94.94,76.33c.31.1.62.21.94.31v.31c-.21-.05-.41-.1-.63-.16.05.31.1.62.16.94h-.47v-1.41Z"/>
    <path class="cls-79" d="M55.55,116.03h.78v.78h-.78v-.78Z"/>
    <path class="cls-29" d="M57.11,114.47h.78v.78h-.78v-.78Z"/>
    <path class="cls-83" d="M99.32,109h.63c-.1.46-.21.93-.31,1.41h-.31v-1.41Z"/>
    <path class="cls-24" d="M81.34,95.08h.78v.78h-.78v-.78Z"/>
    <path class="cls-9" d="M78.06,91.8h.78v.78h-.78v-.78Z"/>
    <path d="M76.49,90.24h.78v.78h-.78v-.78Z"/>
    <path class="cls-19" d="M27.57,76.48h.78v.78h-.78v-.78Z"/>
    <path class="cls-60" d="M76.81,73.04q.3.11.63.31.12.41.16.78h-.78v-1.09Z"/>
    <path class="cls-60" d="M64.61,73.04q.3.11.63.31.12.41.16.78h-.78v-1.09Z"/>
    <path class="cls-77" d="M106.66,66.79h.78v.78h-.78v-.78Z"/>
    <path class="cls-111" d="M38.98,60.22h.78v.78h-.78v-.78Z"/>
    <path class="cls-60" d="M64.61,104.93h.16v.94h-1.09l.94-.94Z"/>
    <path class="cls-61" d="M76.49,86.96q.39.08.78.16v.63h-.78v-.78Z"/>
    <path class="cls-123" d="M51.17,73.98h1.25c.05.21.1.41.16.63-.26.05-.52.1-.78.16v-.47l-.63-.31Z"/>
    <path class="cls-114" d="M97.13,73.98c.53.09.79.16,1.25.47v.31c-.53-.09-.79-.16-1.25-.47v-.31Z"/>
    <path class="cls-50" d="M81.5,73.04c.46.17.75.28,1.09.63-.05.15-.1.31-.16.47l-.47-.47c-.05.15-.1.31-.16.47-.23-.41-.31-.61-.31-1.09Z"/>
    <path class="cls-50" d="M69.3,73.04c.46.17.75.28,1.09.63-.05.15-.1.31-.16.47l-.47-.47c-.05.15-.1.31-.16.47-.23-.41-.31-.61-.31-1.09Z"/>
    <path class="cls-128" d="M72.9,110.87h.63q-.05.37-.16.78c-.15.1-.31.21-.47.31v-1.09Z"/>
    <path class="cls-47" d="M55.39,77.89h1.09q-.05.3-.16.63c-.15.05-.31.1-.47.16q-.23-.21-.47-.47v-.31Z"/>
    <path class="cls-78" d="M48.2,76.64c.15.05.31.1.47.16q-.06.38-.16.78-.15.08-.31.16c-.1-.21-.21-.41-.31-.63.1-.15.21-.31.31-.47Z"/>
    <path class="cls-80" d="M81.34,75.23q.31.47.31.94h-1.56v-.16h.94c.1-.26.21-.52.31-.78Z"/>
    <path class="cls-80" d="M69.15,75.23q.31.47.31.94h-1.56v-.16h.94c.1-.26.21-.52.31-.78Z"/>
    <path class="cls-34" d="M105.41,68.51h.47v.94h-.63c.05-.31.1-.62.16-.94Z"/>
    <path class="cls-86" d="M79.46,99.62c.36.05.72.1,1.09.16v.16h-.94v.94h-.47c.08-.43.17-.83.31-1.25Z"/>
    <path class="cls-128" d="M107.13,76.64h.47v1.09h-.47v-1.09Z"/>
    <path class="cls-101" d="M80.71,73.98h.31c.1.36.21.72.31,1.09-.15-.1-.31-.21-.47-.31-.15.1-.31.21-.47.31.1-.36.21-.72.31-1.09Z"/>
    <path class="cls-101" d="M68.52,73.98h.31c.1.36.21.72.31,1.09-.15-.1-.31-.21-.47-.31-.15.1-.31.21-.47.31.1-.36.21-.72.31-1.09Z"/>
    <path class="cls-47" d="M107.13,73.36h.47v1.09h-.47v-1.09Z"/>
    <path class="cls-107" d="M55.55,119.31h.63v.78h-.63v-.78Z"/>
    <path class="cls-81" d="M57.11,117.75h.78v.63h-.78v-.63Z"/>
    <path class="cls-25" d="M52.26,116.19h.78v.63h-.78v-.63Z"/>
    <path class="cls-42" d="M53.98,114.47h.63v.78h-.63v-.78Z"/>
    <path class="cls-117" d="M52.26,112.9h.78v.63h-.78v-.63Z"/>
    <path class="cls-28" d="M71.34,112.43h.94c-.2.27-.41.53-.63.78h-.31v-.78Z"/>
    <path class="cls-55" d="M79.78,90.24h.63v.78h-.63v-.78Z"/>
    <path class="cls-93" d="M27.72,79.76h.63v.78h-.63v-.78Z"/>
    <path class="cls-84" d="M59.3,77.58h.16v1.09c-.26-.05-.52-.1-.78-.16-.05-.26-.1-.52-.16-.78h.31c.1.15.21.31.31.47l.16-.63Z"/>
    <path class="cls-109" d="M108.38,68.51h.63v.78h-.63v-.78Z"/>
    <path class="cls-41" d="M43.98,65.07h.63v.78h-.63v-.78Z"/>
    <path class="cls-42" d="M42.26,63.51h.78v.63h-.78v-.63Z"/>
    <path class="cls-120" d="M83.68,77.26h.31c.2.45.31.75.31,1.25-.21-.1-.41-.21-.63-.31v-.94Z"/>
    <path class="cls-31" d="M73.84,76.95q.23.19.47.47.03.42,0,.78c-.15-.05-.31-.1-.47-.16v-1.09Z"/>
    <path class="cls-120" d="M71.49,77.26h.31c.2.45.31.75.31,1.25-.21-.1-.41-.21-.63-.31v-.94Z"/>
    <path class="cls-31" d="M61.64,76.95q.23.19.47.47.03.42,0,.78c-.15-.05-.31-.1-.47-.16v-1.09Z"/>
    <path class="cls-12" d="M92.28,75.7c.15.05.31.1.47.16-.05.31-.1.62-.16.94-.15-.05-.31-.1-.47-.16,0-.26,0-.52,0-.78l.16-.16Z"/>
    <path class="cls-75" d="M44.61,75.07l.63.16c-.1.36-.21.72-.31,1.09q-.31-.31-.33-.8c0-.15.01-.3.02-.45Z"/>
    <path class="cls-5" d="M76.96,74.29h.47v1.25q-.23-.19-.47-.47-.03-.42,0-.78Z"/>
    <path class="cls-5" d="M64.77,74.29h.47v1.25q-.23-.19-.47-.47-.03-.42,0-.78Z"/>
    <path class="cls-89" d="M45.23,73.98c.1.31.21.63.31.94q-.46-.08-.94-.16.27-.61.63-.78Z"/>
    <path class="cls-127" d="M102.29,73.98h1.25q-.15.08-.31.16c-.05.15-.1.31-.16.47q-.61-.27-.78-.63Z"/>
    <path class="cls-59" d="M51.33,77.11l.47.31q.03.49,0,.94c-.15-.1-.31-.21-.47-.31q-.03-.49,0-.94Z"/>
    <path class="cls-102" d="M98.69,76.33q.31.31.33.72c0,.12-.01.25-.02.37h-.47c.05-.36.1-.72.16-1.09Z"/>
    <path class="cls-84" d="M52.89,76.01h.47v.47c.15.1.31.21.47.31q-.31.15-.63.31-.31-.92-.31-1.09Z"/>
    <path class="cls-78" d="M73.84,76.01q.23.18.47.47.03.5,0,.94-.23-.18-.47-.47-.03-.5,0-.94Z"/>
    <path class="cls-78" d="M61.64,76.01q.23.18.47.47.03.5,0,.94-.23-.18-.47-.47-.03-.5,0-.94Z"/>
    <path class="cls-122" d="M93.85,102.59h.16v1.25h-.47q.14-.9.31-1.25Z"/>
    <path class="cls-128" d="M57.42,76.01h.94c.05.15.1.31.16.47-.36-.05-.72-.1-1.09-.16v-.31Z"/>
  </g>
</svg>